<?xml version="1.0" encoding="utf-8"?>
<!-- Generator: Adobe Illustrator 19.2.1, SVG Export Plug-In . SVG Version: 6.00 Build 0)  -->
<svg version="1.1" id="Capa_1" xmlns="http://www.w3.org/2000/svg" xmlns:xlink="http://www.w3.org/1999/xlink" x="0px" y="0px"
	 viewBox="0 0 256.5 82" style="enable-background:new 0 0 256.5 82;" xml:space="preserve">
<style type="text/css">
	.st0{fill:#E2A900;}
	.st1{fill:#87B137;}
	.st2{fill:#2C4B8C;}
</style>
<g>
	<path class="st0" d="M153.4,1.5c-3.1,0-5.6,3.8-7.3,7.5c0.2-0.2,0.5-0.4,0.8-0.6c4.9-3.1,32.6,11.3,14.1,4.6
		c-3.2-1.2-5.9-1.7-8-1.9c5.5,2.4,11.5,32.3,5.1,13.8c-3.9-11.2-8.9-12.4-12.2-11.6c0.8,0.3-2.3,6-2.3,6s-0.2-1-0.2-2.4
		c-0.6,1.2-1.2,2.3-1.6,2.9c-4.7,13-6.1,29.9-6.1,29.9s-3.9,2.3-4.2,2.1c-0.2-11.5,6.5-26.5,10.9-35.1c0-0.5,0-1-0.1-1.5l-0.1-0.4
		c-2.5-2.5-7.9-4.8-16.6,5.5c-12.7,15.1,4.1-11.3,9.9-11.1c2,0.1,3.7,1,4.9,2.3c-1.9-2-5.6-3.7-12.2-4.3
		c-19.6-1.8,11.6-3.2,14.7,1.8l0.2,0.3c1.9-8.3,12.3-8.4,12.3-8.2C155.3,1.4,154.8,1.5,153.4,1.5"/>
	<path class="st1" d="M113,0.4c3.1,0,5.6,3.8,7.3,7.5c-0.2-0.2-0.5-0.4-0.8-0.6c-4.9-3.1-32.6,11.3-14.1,4.6c3.2-1.2,5.9-1.7,8-1.9
		c-5.5,2.4-11.5,32.3-5.1,13.8c3.9-11.2,8.9-12.4,12.2-11.6c-0.8,0.3-1.3,1.1-1.3,2.1c0,1.2,1,2.2,2.2,2.2c0.5,0,0.9-0.1,1.3-0.4
		c0.2,1.2,0.2,2.1,0.2,2.1s0.2-1,0.2-2.4c0.6,1.2,1.2,2.3,1.6,2.9c4.7,13,6.1,29.9,6.1,29.9s3.9,2.3,4.2,2.1
		c0.2-11.5-6.5-26.6-10.9-35.1c0-0.5,0-1,0.1-1.5l0.1-0.4c2.5-2.5,7.9-4.8,16.6,5.5c12.7,15.1-4.1-11.3-9.9-11.1
		c-2,0.1-3.7,1-4.9,2.3c1.9-2,5.6-3.7,12.2-4.3c19.6-1.8-11.6-3.2-14.7,1.8l-0.2,0.3c-1.9-8.3-12.3-8.4-12.3-8.2
		C111.1,0.3,111.6,0.4,113,0.4"/>
	<path class="st2" d="M35.6,41.5c0-3.1-0.5-5.9-1.4-8.3c-0.9-2.5-2.1-4.6-3.8-6.3c-1.6-1.8-3.5-3.1-5.8-4.1c-2.2-1-4.7-1.4-7.4-1.4
		c-0.9,0-1.8,0.1-2.6,0.2c-0.8,0.1-1.6,0.3-2.4,0.6v30.2v1.2c0,0.5,0.1,1,0.2,1.5c0.1,0.5,0.2,0.9,0.3,1.3c0.1,0.4,0.3,0.7,0.5,0.9
		c0.8,0.6,1.7,1,2.9,1.3c1.2,0.2,2.2,0.3,3.1,0.3c2.4,0,4.7-0.4,6.7-1.1c2-0.7,3.8-1.8,5.2-3.2c1.5-1.4,2.6-3.3,3.4-5.4
		C35.2,46.9,35.6,44.4,35.6,41.5 M40.9,39.3c0,3.8-0.5,7.1-1.6,9.9c-1,2.8-2.5,5.1-4.4,6.9C33,58,30.7,59.3,28,60.3
		c-2.6,0.9-5.6,1.3-8.9,1.3c-1.2,0-2.4,0-3.6-0.1c-1.2-0.1-2.4-0.2-3.5-0.3c-1.4-0.1-2.7-0.2-4.1-0.3c-1.4-0.1-2.7-0.1-4.1-0.1
		c-0.3,0-0.5-0.2-0.6-0.5c0-0.3,0.1-0.5,0.5-0.6c0.7-0.2,1.2-0.4,1.6-0.6c0.4-0.3,0.7-0.6,0.9-1c0.2-0.4,0.4-0.9,0.5-1.5
		c0.1-0.6,0.1-1.3,0.1-2.2V22.9c0-0.6-0.1-1-0.3-1.4c-0.1-0.3-0.3-0.6-0.6-0.8c-0.2-0.2-0.5-0.3-0.8-0.4c-0.3-0.1-0.5-0.1-0.8-0.2
		C4,20.1,3.7,20,3.4,20c-0.3-0.1-0.5-0.3-0.6-0.6c-0.1-0.2-0.1-0.4,0-0.5c0.1-0.2,0.3-0.2,0.5-0.2c0.6,0,1.2,0,1.8,0.1l1.8,0.1
		c0.7,0.1,1.5,0.1,2.1,0.2c0.7,0,1.4,0.1,2.2,0.1c0.9,0,1.8,0,2.7-0.1l2.8-0.2c0.9-0.1,1.8-0.1,2.7-0.1c1,0,1.9-0.1,2.7-0.1
		c1.2,0,2.5,0.2,3.8,0.6c1.4,0.4,2.7,1,4,1.8c1.4,0.7,2.7,1.6,3.9,2.6c1.3,1,2.4,2.1,3.3,3.3c1,1.2,1.8,2.5,2.4,3.9
		c0.6,1.4,1,2.8,1.1,4.2c0.1,0.7,0.1,1.5,0.1,2.3V39.3z M60.3,50.7c-0.2,0.6-0.3,1.3-0.4,1.9l-0.2,1.9l-0.1,1
		c-0.1,0.2-0.2,0.3-0.4,0.3L58.3,56h-5.2c-0.6,0-1.3,0-1.9,0h-1.9c-1.2,0-2.3,0-3.4,0c-1.1,0-2.2-0.1-3.2-0.2
		c-0.3,0-0.4-0.1-0.4-0.3c0-0.2,0.2-0.4,0.5-0.4c0.5,0,0.9-0.1,1.2-0.3c0.3-0.2,0.6-0.5,0.7-0.8c0.2-0.3,0.3-0.7,0.3-1.1
		c0.1-0.4,0.1-0.9,0.1-1.4v-23c0-0.4,0-0.6-0.1-0.9c-0.1-0.2-0.2-0.4-0.4-0.5c-0.1-0.1-0.3-0.2-0.5-0.3l-0.5-0.2
		c-0.3-0.1-0.6-0.1-0.9-0.2c-0.3-0.1-0.6-0.3-0.8-0.5c-0.2-0.1-0.3-0.2-0.2-0.4c0.1-0.2,0.2-0.2,0.5-0.2H58c0.2,0,0.4-0.1,0.7-0.3
		c0.2-0.1,0.4,0,0.5,0c0.2,0.1,0.2,0.2,0.2,0.3c-0.1,0.8-0.2,1.5-0.4,2.3c-0.1,0.8-0.3,1.5-0.5,2.2l-0.1,0.3l-0.1,0.3
		c-0.1,0.2-0.2,0.3-0.5,0.3c-0.3,0-0.4-0.1-0.5-0.3c-0.1-1.3-0.5-2.1-1.3-2.5c-0.7-0.4-1.6-0.6-2.8-0.6h-0.7c-0.2,0-0.5,0-0.7,0
		c-0.3,0-0.6,0-0.9,0h-0.9c-0.2,0-0.4,0-0.5,0c-0.1,0-0.2,0-0.4,0v11h6.1c0.1,0,0.3,0,0.6-0.1c0.3-0.1,0.6-0.2,0.8-0.4
		c0.3-0.1,0.6-0.2,0.8-0.3c0.2-0.1,0.4-0.2,0.6-0.2c0.2,0,0.3,0,0.5,0.1c0.1,0.1,0.2,0.2,0.2,0.3l-0.2,1.3l-0.2,1.2
		c-0.2,1-0.3,2.1-0.4,3.1c0,0.2-0.1,0.3-0.3,0.3c-0.2,0.1-0.4,0-0.5-0.1c-0.2-0.2-0.3-0.4-0.4-0.6l-0.2-0.6l-0.2-0.7
		c-0.1-0.3-0.1-0.4-0.3-0.5c-0.2-0.2-0.5-0.3-1-0.4c-0.5-0.1-1.1-0.2-1.7-0.2c-0.6-0.1-1.2-0.1-1.8-0.1h-1.5h-0.7v11.1
		c0.5,0.9,1.2,1.5,2.2,1.9c1,0.4,1.9,0.5,2.8,0.5c1.2,0,2.2-0.3,3-0.9c0.9-0.6,1.5-1.6,1.8-2.8c0.3-0.2,0.4-0.2,0.5-0.2
		c0.1,0,0.2,0,0.3,0.1L60.3,50.7z M88.4,50c0,0.8-0.1,1.7-0.4,2.7c-0.2,1-0.5,1.8-0.9,2.6c-0.1,0.1-0.2,0.2-0.4,0.2
		c-1.7,0.3-3.5,0.5-5.2,0.7c-1.7,0.2-3.5,0.3-5.3,0.3c-2.3,0-4.3-0.4-6.3-1.1c-1.9-0.7-3.5-1.8-4.9-3.1c-1.4-1.3-2.5-2.9-3.3-4.8
		c-0.8-1.9-1.2-3.9-1.2-6.2c0-2.4,0.5-4.7,1.4-7c0.9-2.3,2.3-4.2,4-6c0.6-0.7,1.4-1.2,2.4-1.6c1-0.4,2-0.8,3.1-1.1
		c1.1-0.3,2.1-0.5,3.2-0.6c1.1-0.1,2.1-0.2,3-0.2c1,0,2,0.1,3,0.2c1,0.1,2,0.2,2.9,0.4l2.1,0.3c0.7,0.1,1.4,0.2,2.1,0.2
		c0.3,0,0.4,0.1,0.4,0.4c0,1.3-0.1,2.5-0.2,3.8c-0.1,1.2-0.3,2.5-0.5,3.7c-0.1,0.2-0.2,0.3-0.5,0.3c-0.2,0-0.4-0.1-0.4-0.3
		c-0.2-1.2-0.6-2.2-1.1-3.1c-0.6-0.9-1.2-1.7-2-2.3c-0.8-0.6-1.7-1.1-2.7-1.4c-1-0.3-2.1-0.5-3.3-0.5c-1.9,0-3.6,0.3-5.2,0.9
		c-1.5,0.6-2.8,1.5-3.9,2.6c-1.1,1.1-1.9,2.4-2.5,4c-0.6,1.5-0.9,3.3-0.9,5.2c0,2,0.3,3.9,1,5.7c0.7,1.8,1.7,3.5,3,4.9
		c1.3,1.4,2.7,2.6,4.5,3.4c1.7,0.9,3.6,1.3,5.7,1.3c1.2,0,2.2-0.1,3-0.4c0.9-0.2,1.6-0.6,2.2-1.1c0.6-0.5,1.2-1.2,1.6-1.9
		c0.5-0.8,1-1.7,1.5-2.7l0.9,0.1C88.4,49,88.4,49.5,88.4,50 M104,42.2l-3.4-9.9l-1.6,5c-0.5,1.6-1,3.2-1.7,4.9H104z M171.3,50.7
		c-0.2,0.6-0.3,1.3-0.4,1.9l-0.2,1.9l-0.1,1c-0.1,0.2-0.2,0.3-0.4,0.3l-0.7,0.2h-5.2c-0.6,0-1.3,0-1.9,0h-1.9c-1.2,0-2.3,0-3.4,0
		c-0.9,0-1.7-0.1-2.5-0.1c-1.5,0.1-2.9,0.2-4.3,0.2c-1.4,0-2.8,0-4.2-0.1c-0.2,0-0.3,0-0.4-0.1c-0.1-0.1-0.1-0.2,0-0.4
		c0.1-0.4,0.2-0.7,0.2-1c0-0.4,0-0.7,0-1.1c0-2-0.1-4.1-0.3-6.2c-0.2-2.2-0.4-4.3-0.7-6.3l-0.2-1.6l-0.2-1.4l-0.2-1.4l-0.2-1.6
		c-1.2,2.4-2.4,4.8-3.6,7.2l-3.5,7.3l-1.5,3.2l-1.5,3.2c-0.1,0.1-0.2,0.2-0.4,0.2c-0.2,0-0.3-0.1-0.5-0.2c-1.7-2.3-3.2-4.7-4.4-7.2
		c-1.2-2.5-2.4-5-3.5-7.5l-0.8-1.6c-0.2-0.5-0.4-1-0.6-1.4l-0.6-1.4c-0.2-0.5-0.5-1-0.8-1.6c-0.1,0.8-0.1,1.5-0.2,2.3
		c-0.1,0.8-0.2,1.5-0.3,2.3c-0.3,1.9-0.5,3.8-0.7,5.8c-0.2,2-0.3,3.9-0.3,5.8v1.2v1.1c0,0.2,0.1,0.4,0.1,0.6
		c0.1,0.1,0.2,0.2,0.3,0.3c0.1,0.1,0.3,0.2,0.6,0.3l0.7,0.3c0.3,0.1,0.6,0.2,0.9,0.4c0.2,0.1,0.3,0.2,0.2,0.4c0,0.2-0.2,0.2-0.5,0.2
		c-1.4,0-2.8,0-4.2,0c-1.1,0-2.2,0-3.3,0c-0.5,0-0.9,0-1.4,0H112c-0.6,0-1.3,0-2.2,0c-0.9,0-1.6,0-2.1,0c-0.2,0-0.4-0.1-0.5-0.2
		c-0.1-0.1,0-0.2,0.1-0.4l1.4-0.7c-0.7-1.7-1.3-3.5-2-5.2c-0.7-1.7-1.3-3.5-1.9-5.2h-8.1c-0.2,0.5-0.5,1.2-0.9,2.2
		c-0.3,0.9-0.7,1.9-1,2.9c-0.3,1-0.6,1.9-0.9,2.8c-0.2,0.9-0.3,1.5-0.3,1.9c0,0.5,0.2,0.8,0.6,0.9c0.4,0.1,0.9,0.2,1.3,0.3
		c0.3,0.1,0.4,0.2,0.4,0.4c0,0.2-0.1,0.3-0.4,0.3l-8.6,0c-0.3-0.4-0.2-0.5-0.1-0.6l0.5-0.1c0.4,0,0.7-0.1,1-0.3
		c0.4-0.2,0.7-0.5,1-0.8c0.3-0.3,0.6-0.7,0.8-1c0.2-0.4,0.4-0.7,0.6-1.1c0.7-1.8,1.4-3.7,2-5.6c0.7-1.9,1.3-3.8,2-5.6
		c1-2.7,1.9-5.3,2.9-8l3-8c0.1-0.1,0.2-0.2,0.3-0.3c0.1-0.1,0.3-0.1,0.4,0.1c0.5,0.5,0.9,1.3,1.3,2.3c0.4,1,0.7,1.9,1,2.8
		c0.1,0.2,0.2,0.3,0.2,0.5c0.1,0.2,0.1,0.3,0.2,0.4c0.3,0.9,0.7,1.8,1.1,2.7c0.4,0.9,0.8,1.8,1.2,2.8l1.5,4.1l1.7,4.3
		c0.6,1.5,1.1,2.9,1.7,4.3c0.6,1.4,1.2,2.7,1.8,3.9c0.4,0.8,0.9,1.4,1.6,1.7c0.4,0.2,0.9,0.4,1.4,0.5l0.6-0.1
		c0.3-0.1,0.5-0.3,0.6-0.7c0.1-0.2,0.2-0.7,0.3-1.6c0.2-0.9,0.3-2,0.5-3.3l0.5-4.4c0.2-1.6,0.4-3.3,0.5-5c0.2-1.7,0.4-3.4,0.5-5
		c0.2-1.7,0.4-3.2,0.5-4.6c0.1-1.2,0.2-2.3,0.3-3.2l0.2-2c0-0.2,0.1-0.3,0.3-0.3c0.2-0.1,0.3,0,0.5,0.1c0.3,0.2,0.6,0.7,1.1,1.5
		c0.4,0.7,0.9,1.6,1.5,2.6c0.6,1,1.1,2.2,1.8,3.4l1.9,3.9l2,4l1.8,3.8c0.7,1.4,1.2,2.6,1.6,3.4c0.4,0.8,0.7,1.5,1,2.1
		c0.7-1.5,1.4-2.9,2.1-4.3c0.7-1.4,1.3-2.8,2-4.3c0.6-1.2,1.1-2.5,1.7-3.7c0.6-1.2,1.2-2.4,1.7-3.7l0.8-1.8l1.7-3.5
		c0.6-1.2,1.2-2.3,2-3.5c0.1-0.1,0.3-0.2,0.5-0.2c0.2,0,0.3,0.1,0.4,0.3c0.2,1.8,0.4,3.6,0.6,5.5c0.2,1.8,0.4,3.6,0.6,5.4l0.1,1.2
		l0.2,1.7l0.2,2.6c0.1,0.9,0.2,1.9,0.3,2.9l0.3,2.9c0.1,0.9,0.2,1.8,0.4,2.6c0.1,0.8,0.3,1.5,0.4,2.1c0.2,0.6,0.3,1,0.5,1.3
		c0.3,0.5,0.7,0.9,1.1,1.1c0.4,0.1,0.8,0.3,1.3,0.3c0.2,0.1,0.5,0.1,0.8,0.2c0.7,0,1.1-0.1,1.4-0.3c0.3-0.2,0.6-0.5,0.7-0.8
		c0.2-0.3,0.3-0.7,0.3-1.1c0.1-0.4,0.1-0.9,0.1-1.4v-23c0-0.4,0-0.6-0.1-0.9c-0.1-0.2-0.2-0.4-0.4-0.5c-0.1-0.1-0.3-0.2-0.5-0.3
		l-0.5-0.2c-0.3-0.1-0.6-0.1-0.9-0.2c-0.3-0.1-0.5-0.3-0.8-0.5c-0.2-0.1-0.3-0.2-0.2-0.4c0.1-0.2,0.2-0.2,0.5-0.2H169
		c0.2,0,0.4-0.1,0.7-0.3c0.2-0.1,0.4,0,0.5,0c0.2,0.1,0.2,0.2,0.2,0.3c-0.1,0.8-0.2,1.5-0.4,2.3c-0.1,0.8-0.3,1.5-0.5,2.2l-0.1,0.3
		l-0.1,0.3c-0.1,0.2-0.2,0.3-0.5,0.3c-0.3,0-0.4-0.1-0.4-0.3c-0.1-1.3-0.5-2.1-1.3-2.5c-0.7-0.4-1.6-0.6-2.8-0.6h-0.7
		c-0.2,0-0.5,0-0.7,0c-0.3,0-0.6,0-0.9,0h-0.9c-0.2,0-0.4,0-0.4,0c-0.1,0-0.2,0-0.4,0v11h6.1c0.1,0,0.3,0,0.6-0.1
		c0.3-0.1,0.6-0.2,0.8-0.4c0.3-0.1,0.6-0.2,0.8-0.3c0.2-0.1,0.4-0.2,0.6-0.2c0.2,0,0.3,0,0.5,0.1c0.1,0.1,0.2,0.2,0.2,0.3l-0.2,1.3
		l-0.2,1.2c-0.2,1-0.3,2.1-0.4,3.1c0,0.2-0.1,0.3-0.3,0.3c-0.2,0.1-0.4,0-0.5-0.1c-0.2-0.2-0.3-0.4-0.4-0.6l-0.2-0.6l-0.2-0.7
		c-0.1-0.3-0.1-0.4-0.3-0.5c-0.2-0.2-0.5-0.3-1-0.4c-0.5-0.1-1.1-0.2-1.7-0.2c-0.6-0.1-1.2-0.1-1.8-0.1h-1.5h-0.7v11.1
		c0.5,0.9,1.2,1.5,2.2,1.9c1,0.4,1.9,0.5,2.8,0.5c1.2,0,2.2-0.3,3-0.9c0.9-0.6,1.5-1.6,1.8-2.8c0.3-0.2,0.4-0.2,0.5-0.2
		c0.1,0,0.2,0,0.3,0.1L171.3,50.7z M202,55.9c-0.6,0.3-1.3,0.5-2,0.7c-0.7,0.2-1.4,0.3-2.1,0.3c-1.2,0-2.2-0.2-3.1-0.7
		c-0.9-0.4-1.8-1-2.6-1.6c-0.8-0.7-1.5-1.5-2.2-2.4c-0.7-0.9-1.3-1.8-1.9-2.7c-0.6-0.9-1.3-1.7-1.9-2.6c-0.6-0.9-1.2-1.6-1.9-2.1
		c-0.5-0.4-1.1-0.7-1.9-0.8c-0.7-0.1-1.4-0.2-1.9-0.2h-0.7c-0.2,0-0.5,0-0.7,0v7.7l0,0.7l0.2,1.1l0.2,1c0.1,0.3,0.2,0.5,0.2,0.5
		c0.1,0.1,0.3,0.1,0.5,0.1l0.6,0.1c0.3,0,0.6,0.1,0.9,0.1c0.3,0.1,0.6,0.2,0.9,0.4c0.2,0.1,0.2,0.3,0.1,0.4
		c-0.1,0.1-0.2,0.2-0.5,0.2h-5c-1.7,0-3.4,0-5-0.1c-0.3,0-0.4-0.1-0.5-0.3c0-0.2,0.1-0.4,0.4-0.4c0.6-0.1,1.1-0.2,1.4-0.4
		c0.3-0.1,0.6-0.3,0.7-0.6c0.2-0.3,0.3-0.6,0.3-1c0-0.4,0-1,0-1.6V28.9c0-0.5-0.1-0.8-0.2-1.1c-0.1-0.3-0.2-0.5-0.4-0.6
		c-0.2-0.1-0.3-0.2-0.5-0.3c-0.2-0.1-0.4-0.1-0.6-0.1c-0.4,0-0.7-0.1-1-0.2c-0.3-0.1-0.5-0.3-0.5-0.5c-0.1-0.1-0.1-0.2,0-0.3
		c0.1-0.1,0.2-0.2,0.4-0.2h0.7h2.7c0.5,0,0.9,0,1.3,0c0.4,0,0.8,0,1.3,0h0.7c0.2,0,0.5,0,0.7,0h2.2c1.2,0,2.3,0.1,3.4,0.3
		c1.1,0.1,2.2,0.4,3.1,0.9c1,0.4,1.8,1.1,2.5,1.9c0.7,0.8,1.2,1.9,1.5,3.3c0.1,0.1,0.1,0.3,0.1,0.5c0,0.2,0,0.4,0,0.6
		c0,0.9-0.1,1.7-0.4,2.6c-0.3,0.8-0.6,1.6-1.1,2.4c-0.4,0.8-0.9,1.6-1.5,2.3c-0.5,0.7-1.1,1.3-1.7,1.9c0.4,0.5,0.9,1,1.4,1.7l1.5,2
		l2.6,3.4c0.9,1.2,1.8,2.2,2.8,3.1c1,0.9,2,1.6,3,2.2c1,0.5,2,0.7,3.1,0.5L202,55.9z M187.7,35.3c0-1-0.1-1.9-0.4-2.9
		c-0.2-1-0.6-1.8-1.2-2.6c-0.5-0.8-1.2-1.4-2-1.9c-0.8-0.5-1.7-0.7-2.7-0.7c-0.8,0-1.6,0.1-2.3,0.4v13.6c1.1,0.2,2.2,0.2,3.4,0.2
		c0.5,0,1,0,1.6-0.1c0.6-0.1,1.1-0.2,1.5-0.5c0.4-0.3,0.7-0.7,1-1.1c0.3-0.4,0.5-0.9,0.7-1.4c0.2-0.5,0.3-1,0.3-1.5
		C187.6,36.3,187.7,35.7,187.7,35.3 M225.4,41.7c0,2.1-0.4,4-1.1,5.6c-0.7,1.6-1.8,3.1-3.1,4.3c-1.3,1.2-2.7,2.2-4.4,3
		c-1.7,0.8-3.5,1.4-5.4,1.9l-0.6,0.1c-0.2,0-0.5,0-0.7,0c-0.2,0-0.5,0-0.8,0h-0.6c-1.1,0-2.3-0.2-3.5-0.6c-1.2-0.4-2.4-1-3.5-1.6
		c-1.1-0.7-2.2-1.6-3.2-2.5c-1-1-1.9-2-2.6-3.1c-0.7-1.1-1.3-2.3-1.8-3.5c-0.4-1.2-0.7-2.4-0.7-3.6c0-2.4,0.3-4.6,0.8-6.4
		c0.5-1.9,1.4-3.5,2.5-4.9c1.2-1.4,2.6-2.5,4.4-3.4c1.8-0.9,4-1.7,6.6-2.2c0.4-0.1,0.8-0.1,1.2-0.2c0.4-0.1,0.8-0.1,1.2-0.1
		c2.6,0,4.8,0.5,6.8,1.6c1.9,1,3.5,2.4,4.8,4c1.3,1.7,2.2,3.5,2.8,5.6C225.1,37.7,225.4,39.7,225.4,41.7 M221.3,41.6
		c0-1.8-0.3-3.6-0.8-5.3c-0.5-1.8-1.3-3.4-2.3-4.8c-1-1.4-2.3-2.5-3.8-3.4c-1.5-0.9-3.2-1.3-5.1-1.3c-1.8,0-3.5,0.3-4.9,1
		c-1.4,0.7-2.6,1.6-3.6,2.8c-1,1.2-1.7,2.5-2.2,4.1c-0.5,1.5-0.7,3.2-0.7,4.9c0,1.8,0.3,3.6,0.8,5.4c0.5,1.8,1.3,3.4,2.4,4.8
		c1,1.4,2.3,2.6,3.8,3.5c1.5,0.9,3.3,1.3,5.2,1.3c1.8,0,3.5-0.3,4.9-1c1.4-0.7,2.6-1.7,3.5-2.8c1-1.2,1.7-2.6,2.2-4.1
		C221,45,221.3,43.3,221.3,41.6 M255.5,26.8c-0.1,0-0.2,0.1-0.3,0.2c-0.7,0.3-1.1,0.5-1.6,0.6c-0.4,0.2-0.6,0.5-0.6,1
		c0,4.6,0,9.2,0,13.8c0.1,4.6-0.1,9.2-0.4,13.7c0,0.2-0.1,0.3-0.3,0.3c-0.2,0.1-0.3,0-0.5-0.1c-1.8-1.5-3.5-3.1-5.2-4.7
		c-1.7-1.7-3.4-3.4-5.1-5.2c-1.6-1.8-3.3-3.6-4.9-5.4l-4.8-5.3c-0.5-0.6-0.9-1-1.2-1.4l-1.2-1.4c-0.1,0.8-0.1,1.6-0.1,2.3
		c0,1.4,0,2.7,0.1,4.1l0.2,4l0.2,4.2c0.1,1.3,0.1,2.7,0.1,4.1c0,0.7,0.1,1.2,0.2,1.6c0.1,0.4,0.2,0.7,0.4,0.9
		c0.2,0.2,0.4,0.4,0.7,0.5c0.3,0.1,0.5,0.2,0.7,0.2c0.3,0.1,0.6,0.1,0.8,0.2c0.3,0.1,0.6,0.2,0.9,0.4c0.2,0.1,0.2,0.2,0.2,0.4
		c-0.1,0.1-0.2,0.2-0.5,0.2l-5.2-0.1c-0.7,0-1.4,0-2.2,0.1c-0.7,0.1-1.4,0.1-2.1-0.1c-0.2-0.1-0.4-0.2-0.3-0.4
		c0.1-0.2,0.2-0.3,0.5-0.4l0.6-0.1c0.6-0.1,1.1-0.4,1.5-0.8c0.4-0.4,0.6-1,0.6-1.7v-26c0-0.2,0.1-0.4,0.2-0.5
		c0.1-0.2,0.2-0.3,0.4-0.5c0.2-0.2,0.4-0.2,0.7,0c7.6,7.8,15,15.7,22.3,23.7v-0.6c0-0.2,0-0.4,0-0.7c0-3-0.1-6-0.2-9
		c-0.1-3-0.1-6-0.1-9c0-0.6-0.1-1.1-0.2-1.5c-0.1-0.4-0.3-0.6-0.5-0.8c-0.2-0.2-0.4-0.3-0.7-0.4l-0.7-0.2l-0.8-0.2
		c-0.2-0.1-0.4-0.2-0.5-0.3c-0.2-0.1-0.2-0.2-0.2-0.4c0.1-0.1,0.2-0.2,0.5-0.2h3h2.9c1,0,2,0,3,0L255.5,26.8z"/>
	<path class="st2" d="M40.9,39.3v-2.1c0-0.8,0-1.6-0.1-2.3c-0.1-1.4-0.5-2.8-1.1-4.2c-0.6-1.4-1.5-2.7-2.5-3.9
		c-1-1.2-2.1-2.3-3.3-3.3c-1.3-1-2.6-1.9-3.9-2.6c-1.3-0.8-2.7-1.4-4-1.8c-1.3-0.4-2.6-0.6-3.8-0.6c-0.9,0-1.7,0-2.7,0.1
		c-1,0-1.9,0-2.8,0.1c-1,0.1-1.9,0.2-2.8,0.2c-0.9,0-1.8,0.1-2.7,0.1c-0.7,0-1.5,0-2.2-0.1c-0.7,0-1.4-0.1-2.1-0.2
		c-0.6,0-1.2-0.1-1.8-0.1c-0.6,0-1.2-0.1-1.8-0.1c-0.2,0-0.4,0.1-0.5,0.2c-0.1,0.2-0.1,0.3,0,0.5c0.1,0.3,0.3,0.5,0.6,0.6
		C3.7,20,4,20.1,4.5,20.2c0.2,0,0.5,0.1,0.8,0.2c0.3,0.1,0.5,0.2,0.8,0.4c0.2,0.2,0.4,0.5,0.6,0.8c0.2,0.4,0.3,0.8,0.3,1.4v31.6
		c0,0.8,0,1.6-0.1,2.2c-0.1,0.6-0.2,1.1-0.5,1.5c-0.2,0.4-0.5,0.7-0.9,1c-0.4,0.3-1,0.5-1.6,0.6c-0.3,0.1-0.5,0.3-0.5,0.6
		c0.1,0.3,0.3,0.5,0.6,0.5c1.4-0.1,2.7-0.1,4.1,0.1c1.4,0.1,2.8,0.2,4.1,0.3c1.2,0.1,2.3,0.2,3.5,0.3c1.2,0.1,2.4,0.1,3.6,0.1
		c3.3,0,6.2-0.4,8.9-1.3c2.7-0.9,5-2.3,6.9-4.1c1.9-1.8,3.4-4.1,4.4-6.9C40.3,46.4,40.9,43.2,40.9,39.3 M35.6,41.5
		c0,2.9-0.4,5.4-1.2,7.6c-0.8,2.2-2,4-3.4,5.4c-1.4,1.4-3.2,2.5-5.2,3.2c-2,0.7-4.3,1.1-6.7,1.1c-0.9,0-2-0.1-3.1-0.3
		c-1.1-0.2-2.1-0.6-2.9-1.3c-0.2-0.2-0.3-0.4-0.5-0.9c-0.1-0.4-0.2-0.9-0.3-1.3c-0.1-0.5-0.1-1-0.2-1.5v-1.2V22.1
		c0.8-0.3,1.6-0.5,2.4-0.6c0.8-0.1,1.7-0.2,2.6-0.2c2.7,0,5.2,0.5,7.4,1.4c2.3,1,4.2,2.3,5.8,4.1c1.6,1.7,2.9,3.8,3.8,6.3
		C35.1,35.6,35.6,38.4,35.6,41.5"/>
	<path class="st2" d="M60.3,50.7c0-0.1,0-0.2-0.1-0.2c-0.1-0.1-0.2-0.1-0.3-0.1c-0.1,0-0.2,0-0.3,0c-0.1,0-0.2,0.1-0.2,0.2
		c-0.3,1.2-0.9,2.2-1.8,2.8c-0.9,0.6-1.9,0.9-3,0.9c-0.9,0-1.9-0.2-2.8-0.5c-1-0.4-1.7-1-2.2-1.9V40.7h0.7h1.5c0.6,0,1.2,0,1.8,0.1
		c0.6,0,1.2,0.1,1.7,0.2c0.5,0.1,0.9,0.2,1,0.4c0.1,0.1,0.2,0.3,0.3,0.5c0.1,0.2,0.2,0.5,0.3,0.7c0.1,0.2,0.1,0.4,0.2,0.6
		c0.1,0.2,0.2,0.4,0.4,0.6c0.2,0.1,0.3,0.2,0.5,0.1c0.2-0.1,0.3-0.2,0.3-0.3c0.1-1.1,0.2-2.1,0.4-3.1c0-0.4,0.1-0.8,0.2-1.2
		c0-0.4,0.1-0.9,0.2-1.3c0-0.1,0-0.2-0.2-0.3c-0.1-0.1-0.3-0.1-0.5-0.1c-0.1,0-0.3,0.1-0.6,0.2c-0.2,0.1-0.5,0.2-0.8,0.3
		c-0.3,0.1-0.5,0.3-0.8,0.4c-0.3,0.1-0.5,0.1-0.6,0.1h-6.1v-11c0.2,0.1,0.4,0.1,0.4,0c0.1,0,0.2,0,0.5,0h0.9c0.3,0,0.6,0,0.9,0
		c0.2,0,0.5,0,0.7,0h0.7c1.1,0,2,0.2,2.8,0.6c0.7,0.4,1.2,1.2,1.3,2.5c0,0.2,0.2,0.3,0.5,0.3c0.3,0,0.4-0.1,0.5-0.3
		c0-0.1,0.1-0.2,0.1-0.3c0-0.1,0.1-0.2,0.1-0.3c0.2-0.7,0.3-1.5,0.5-2.2c0.2-0.8,0.3-1.5,0.4-2.3c0-0.1,0-0.2-0.2-0.3
		c-0.1-0.1-0.3-0.1-0.5,0c-0.3,0.2-0.6,0.3-0.7,0.3H42.2c-0.2,0-0.4,0.1-0.5,0.2c-0.1,0.2,0,0.3,0.2,0.4c0.3,0.2,0.6,0.3,0.8,0.5
		c0.3,0.1,0.6,0.2,0.9,0.2c0.2,0.1,0.4,0.1,0.5,0.2c0.2,0.1,0.4,0.2,0.5,0.3c0.2,0.1,0.3,0.3,0.4,0.5c0.1,0.2,0.1,0.5,0.1,0.9v23
		c0,0.5,0,0.9-0.1,1.4c0,0.4-0.2,0.8-0.3,1.1c-0.2,0.3-0.4,0.6-0.7,0.8c-0.3,0.2-0.7,0.3-1.2,0.3c-0.3,0-0.4,0.1-0.4,0.4
		c0,0.2,0.1,0.3,0.4,0.3c1,0.1,2,0.2,3.2,0.2c1.1,0,2.3,0,3.4,0h1.9c0.6,0,1.3,0,1.9,0h5.2l0.7-0.2c0.2,0,0.4-0.1,0.4-0.3l0.1-1
		c0.1-0.7,0.2-1.3,0.2-1.9C60,51.9,60.1,51.3,60.3,50.7"/>
	<path class="st2" d="M88.4,50c0-0.5,0-1-0.1-1.4l-0.9-0.1c-0.5,1-1,1.9-1.5,2.7c-0.5,0.8-1,1.4-1.6,1.9c-0.6,0.5-1.4,0.9-2.2,1.1
		c-0.8,0.2-1.8,0.4-3,0.4c-2.1,0-4-0.4-5.7-1.3c-1.7-0.8-3.2-2-4.4-3.4c-1.3-1.4-2.3-3.1-3-4.9c-0.7-1.8-1-3.7-1-5.7
		c0-1.9,0.3-3.6,0.9-5.2c0.6-1.6,1.4-2.9,2.5-4c1.1-1.1,2.4-1.9,3.9-2.6c1.5-0.6,3.3-0.9,5.2-0.9c1.1,0,2.2,0.2,3.3,0.5
		c1,0.3,1.9,0.8,2.7,1.4c0.8,0.6,1.5,1.4,2,2.3c0.5,0.9,0.9,1.9,1.1,3.1c0.1,0.2,0.2,0.3,0.5,0.3c0.3,0,0.4-0.1,0.5-0.3
		c0.2-1.2,0.4-2.5,0.5-3.7c0.1-1.3,0.2-2.5,0.2-3.8c0-0.2-0.1-0.4-0.4-0.4c-0.7-0.1-1.4-0.1-2.1-0.2c-0.7-0.1-1.4-0.2-2.1-0.3
		c-1-0.1-1.9-0.3-2.9-0.4c-1-0.1-2-0.2-3-0.2c-0.9,0-1.9,0.1-3,0.2c-1.1,0.1-2.1,0.3-3.2,0.6c-1.1,0.3-2.1,0.6-3.1,1.1
		c-1,0.4-1.8,1-2.4,1.6c-1.7,1.7-3,3.7-4,6c-0.9,2.2-1.4,4.5-1.4,7c0,2.3,0.4,4.3,1.2,6.2c0.8,1.8,1.9,3.4,3.3,4.8
		c1.4,1.3,3,2.4,4.9,3.1c1.9,0.7,4,1.1,6.3,1.1c1.8,0,3.5-0.1,5.3-0.3c1.8-0.2,3.5-0.4,5.2-0.7c0.2,0,0.3-0.1,0.4-0.2
		c0.4-0.7,0.7-1.6,0.9-2.6C88.3,51.7,88.4,50.8,88.4,50"/>
	<path class="st2" d="M116.8,56v-0.7c-0.8-0.1-1.6-0.2-2.3-0.6c-0.7-0.3-1.2-0.9-1.6-1.7c-0.6-1.2-1.2-2.5-1.8-3.9
		c-0.6-1.4-1.2-2.8-1.7-4.3c-0.6-1.5-1.1-2.9-1.7-4.3c-0.5-1.4-1-2.8-1.5-4.1c-0.4-1-0.7-1.9-1.2-2.8c-0.4-0.9-0.7-1.8-1.1-2.7
		c-0.1-0.1-0.1-0.2-0.2-0.4c0-0.2-0.1-0.3-0.2-0.5c-0.3-0.8-0.6-1.8-1-2.8c-0.4-1-0.8-1.7-1.3-2.3c-0.1-0.1-0.2-0.2-0.4-0.1
		c-0.1,0.1-0.2,0.2-0.3,0.3c-1,2.7-2,5.3-3,8c-1,2.6-2,5.3-2.9,8c-0.7,1.8-1.3,3.7-2,5.6c-0.6,1.9-1.3,3.7-2,5.6
		c-0.1,0.3-0.3,0.7-0.6,1.1c-0.2,0.4-0.5,0.7-0.8,1c-0.3,0.3-0.6,0.6-1,0.8c-0.3,0.2-0.7,0.3-1,0.3H87c-0.1,0-0.2,0-0.2,0.1
		c-0.1,0.1-0.1,0.2-0.1,0.3c0,0.1,0.1,0.1,0.1,0.2c0.1,0.1,0.1,0.1,0.1,0.1l8.6,0c0.3,0,0.4-0.1,0.4-0.3c0-0.2-0.1-0.4-0.4-0.4
		c-0.4-0.1-0.8-0.2-1.3-0.3c-0.4-0.2-0.6-0.5-0.6-0.9c0-0.4,0.1-1,0.3-1.9c0.2-0.9,0.5-1.9,0.9-2.8c0.3-1,0.7-2,1-2.9
		c0.4-1,0.6-1.7,0.9-2.2h8.1c0.6,1.7,1.3,3.5,1.9,5.2c0.7,1.7,1.4,3.5,2,5.2l-1.4,0.7c-0.2,0.1-0.2,0.3-0.1,0.4
		c0.1,0.1,0.2,0.2,0.5,0.2c0.6,0.1,1.3,0.1,2.1,0c0.8,0,1.6,0,2.2,0h2.4C115.2,56.1,116,56.1,116.8,56 M104,42.2h-6.6
		c0.6-1.7,1.2-3.4,1.7-4.9c0.5-1.6,1-3.3,1.6-5L104,42.2z"/>
	<path class="st2" d="M154.5,55.4c-0.3-0.1-0.6-0.2-0.9-0.3c-0.3-0.1-0.5-0.2-0.8-0.2c-0.4-0.1-0.9-0.2-1.3-0.3
		c-0.4-0.2-0.7-0.5-1.1-1.1c-0.2-0.3-0.3-0.7-0.5-1.3c-0.1-0.6-0.3-1.3-0.4-2.1c-0.1-0.8-0.3-1.7-0.4-2.6c-0.1-1-0.2-1.9-0.3-2.9
		c-0.1-1-0.2-2-0.3-2.9c-0.1-1-0.2-1.8-0.2-2.6c-0.1-0.6-0.1-1.2-0.2-1.7c0-0.5-0.1-0.9-0.1-1.2c-0.2-1.8-0.4-3.6-0.6-5.4
		c-0.2-1.8-0.4-3.7-0.6-5.5c0-0.2-0.2-0.3-0.4-0.3c-0.2,0-0.4,0-0.5,0.2c-0.7,1.1-1.4,2.3-2,3.5c-0.6,1.2-1.1,2.3-1.7,3.5l-0.8,1.8
		c-0.6,1.3-1.2,2.5-1.7,3.7c-0.6,1.2-1.1,2.4-1.7,3.7c-0.7,1.5-1.3,2.9-2,4.3c-0.7,1.4-1.3,2.8-2.1,4.3c-0.3-0.5-0.6-1.2-1-2.1
		c-0.4-0.9-0.9-2-1.6-3.4c-0.6-1.2-1.2-2.5-1.8-3.8c-0.7-1.3-1.3-2.7-2-4c-0.7-1.3-1.3-2.7-1.9-3.9c-0.6-1.3-1.2-2.4-1.8-3.4
		c-0.6-1-1-1.9-1.5-2.6c-0.4-0.7-0.8-1.2-1.1-1.5c-0.2-0.1-0.3-0.2-0.5-0.1c-0.2,0.1-0.3,0.2-0.3,0.3c-0.1,0.4-0.1,1.1-0.2,2
		c-0.1,0.9-0.2,2-0.3,3.2c-0.1,1.4-0.3,2.9-0.5,4.6c-0.2,1.6-0.3,3.3-0.5,5c-0.2,1.7-0.3,3.4-0.5,5c-0.2,1.6-0.4,3.1-0.5,4.4
		c-0.2,1.3-0.3,2.4-0.5,3.3c-0.1,0.9-0.2,1.4-0.3,1.6c-0.2,0.4-0.4,0.6-0.6,0.7c-0.2,0-0.5,0.1-0.8,0.2c-0.1,0-0.4,0.1-0.7,0.1
		c-0.3,0.1-0.4,0.1-0.4,0c-0.1,0.1-0.2,0.2-0.2,0.4c0.1,0.1,0.2,0.2,0.4,0.2c1.4,0.1,2.8,0.1,4.2,0.1c1.4,0,2.8,0,4.2,0
		c0.3,0,0.4-0.1,0.5-0.2c0.1-0.2,0-0.3-0.2-0.4c-0.4-0.2-0.7-0.3-1-0.4c-0.2-0.1-0.5-0.2-0.7-0.3h0c-0.3-0.1-0.5-0.2-0.6-0.3
		c-0.1-0.1-0.2-0.2-0.3-0.3c0-0.1-0.1-0.3-0.1-0.6v-1.1v-1.2c0-1.9,0.1-3.8,0.3-5.8c0.2-2,0.5-3.9,0.7-5.8c0.1-0.7,0.2-1.5,0.3-2.3
		c0.1-0.8,0.2-1.5,0.2-2.3c0.3,0.6,0.6,1.1,0.8,1.6c0.2,0.5,0.4,0.9,0.6,1.4c0.2,0.4,0.4,0.9,0.6,1.4c0.2,0.5,0.5,1,0.8,1.6
		c1.1,2.6,2.3,5.1,3.5,7.5c1.2,2.5,2.7,4.9,4.4,7.2c0.1,0.1,0.3,0.2,0.5,0.2c0.2,0,0.3-0.1,0.4-0.2c0.5-1.1,1-2.1,1.5-3.2
		c0.5-1.1,1-2.1,1.5-3.2c1.2-2.4,2.3-4.9,3.5-7.3c1.2-2.4,2.3-4.8,3.6-7.2c0.1,0.6,0.1,1.1,0.2,1.6c0.1,0.5,0.1,0.9,0.2,1.4
		c0.1,0.4,0.1,0.9,0.2,1.4c0.1,0.5,0.1,1,0.2,1.6c0.2,2,0.5,4.1,0.7,6.3c0.2,2.2,0.3,4.2,0.3,6.2c0,0.4,0,0.7,0,1.1
		c0,0.3-0.1,0.7-0.2,1c-0.1,0.1,0,0.3,0,0.4c0.1,0.1,0.2,0.1,0.4,0.1c1.4,0.1,2.8,0.1,4.2,0.1c1.4,0,2.8,0,4.2,0L154.5,55.4z"/>
	<path class="st2" d="M171.3,50.7c0-0.1,0-0.2-0.1-0.2c-0.1-0.1-0.2-0.1-0.3-0.1c-0.1,0-0.2,0-0.3,0c-0.1,0-0.2,0.1-0.2,0.2
		c-0.3,1.2-0.9,2.2-1.8,2.8c-0.9,0.6-1.9,0.9-3,0.9c-0.9,0-1.9-0.2-2.8-0.5c-1-0.4-1.7-1-2.2-1.9V40.7h0.7h1.5c0.6,0,1.2,0,1.8,0.1
		c0.6,0,1.2,0.1,1.7,0.2c0.5,0.1,0.9,0.2,1,0.4c0.1,0.1,0.2,0.3,0.3,0.5c0.1,0.2,0.2,0.5,0.3,0.7c0.1,0.2,0.1,0.4,0.2,0.6
		c0.1,0.2,0.2,0.4,0.4,0.6c0.2,0.1,0.3,0.2,0.5,0.1c0.2-0.1,0.3-0.2,0.3-0.3c0.1-1.1,0.2-2.1,0.4-3.1c0.1-0.4,0.1-0.8,0.2-1.2
		c0.1-0.4,0.1-0.9,0.2-1.3c0-0.1,0-0.2-0.2-0.3c-0.1-0.1-0.3-0.1-0.5-0.1c-0.1,0-0.3,0.1-0.6,0.2c-0.2,0.1-0.5,0.2-0.8,0.3
		c-0.3,0.1-0.6,0.3-0.8,0.4c-0.3,0.1-0.5,0.1-0.6,0.1h-6.1v-11c0.2,0.1,0.4,0.1,0.4,0c0.1,0,0.2,0,0.4,0h0.9c0.3,0,0.6,0,0.9,0
		c0.2,0,0.5,0,0.7,0h0.7c1.1,0,2.1,0.2,2.8,0.6c0.7,0.4,1.2,1.2,1.3,2.5c0,0.2,0.2,0.3,0.4,0.3c0.3,0,0.4-0.1,0.5-0.3
		c0-0.1,0-0.2,0.1-0.3c0-0.1,0.1-0.2,0.1-0.3c0.2-0.7,0.3-1.5,0.5-2.2c0.2-0.8,0.3-1.5,0.4-2.3c0-0.1,0-0.2-0.2-0.3
		c-0.1-0.1-0.3-0.1-0.5,0c-0.3,0.2-0.6,0.3-0.7,0.3h-15.8c-0.2,0-0.4,0.1-0.5,0.2c-0.1,0.2,0,0.3,0.2,0.4c0.3,0.2,0.5,0.3,0.8,0.5
		c0.3,0.1,0.6,0.2,0.9,0.2c0.2,0.1,0.4,0.1,0.5,0.2c0.2,0.1,0.4,0.2,0.5,0.3c0.2,0.1,0.3,0.3,0.4,0.5c0.1,0.2,0.1,0.5,0.1,0.9v23
		c0,0.5,0,0.9-0.1,1.4c0,0.4-0.2,0.8-0.3,1.1c-0.2,0.3-0.4,0.6-0.7,0.8c-0.3,0.2-0.7,0.3-1.2,0.3c-0.3,0-0.4,0.1-0.5,0.4
		c0,0.2,0.1,0.3,0.4,0.3c1,0.1,2,0.2,3.2,0.2c1.1,0,2.3,0,3.4,0h1.9c0.6,0,1.3,0,1.9,0h5.2l0.7-0.2c0.2,0,0.4-0.1,0.4-0.3l0.1-1
		c0.1-0.7,0.2-1.3,0.2-1.9C171,51.9,171.1,51.3,171.3,50.7"/>
	<path class="st2" d="M202,55.9l-0.2-0.7c-1,0.2-2.1,0-3.1-0.5c-1-0.6-2-1.3-3-2.2c-1-0.9-1.9-2-2.8-3.1c-0.9-1.2-1.7-2.3-2.6-3.4
		c-0.5-0.7-1-1.3-1.5-2c-0.5-0.7-0.9-1.2-1.4-1.7c0.6-0.6,1.2-1.2,1.7-1.9c0.6-0.7,1.1-1.5,1.5-2.3c0.4-0.8,0.8-1.6,1.1-2.4
		c0.3-0.9,0.4-1.7,0.4-2.6c0-0.2,0-0.4,0-0.6c0-0.2,0-0.4-0.1-0.5c-0.3-1.4-0.8-2.5-1.5-3.3c-0.7-0.9-1.5-1.5-2.5-1.9
		c-0.9-0.5-2-0.8-3.1-0.9c-1.1-0.2-2.2-0.2-3.4-0.2h-2.2c-0.2,0-0.5,0-0.7,0h-0.7c-0.4,0-0.9,0-1.3,0c-0.4,0-0.9,0-1.3,0h-2.7h-0.7
		c-0.2,0-0.3,0.1-0.4,0.2c-0.1,0.1-0.1,0.2,0,0.3c0.1,0.3,0.3,0.5,0.5,0.5c0.3,0.1,0.6,0.1,1,0.2c0.2,0,0.4,0.1,0.6,0.1
		c0.2,0,0.4,0.1,0.5,0.3c0.2,0.1,0.3,0.3,0.4,0.6c0.1,0.3,0.2,0.6,0.2,1.1v22.8c0,0.7,0,1.2,0,1.6c0,0.4-0.1,0.7-0.3,1
		c-0.1,0.2-0.4,0.4-0.7,0.6c-0.3,0.1-0.8,0.3-1.4,0.4c-0.3,0.1-0.4,0.2-0.4,0.4c0,0.2,0.2,0.3,0.5,0.3c1.7,0.1,3.3,0.1,5,0.1h5
		c0.2,0,0.4-0.1,0.5-0.2c0.1-0.1,0-0.3-0.1-0.4c-0.2-0.2-0.5-0.4-0.9-0.4c-0.3-0.1-0.6-0.1-0.9-0.1c-0.1,0-0.3-0.1-0.6-0.1
		c-0.2,0-0.4-0.1-0.5-0.1c-0.1-0.1-0.2-0.2-0.2-0.5c-0.1-0.3-0.2-0.6-0.2-1c-0.1-0.4-0.2-0.7-0.2-1.1c0-0.3,0-0.6,0-0.7v-7.7
		c0.2,0,0.4,0,0.7,0h0.7c0.6,0,1.2,0.1,1.9,0.2c0.7,0.1,1.4,0.4,1.9,0.8c0.7,0.6,1.3,1.3,1.9,2.1c0.6,0.8,1.3,1.7,1.9,2.6
		c0.6,0.9,1.3,1.8,1.9,2.7c0.7,0.9,1.4,1.7,2.2,2.4c0.8,0.7,1.7,1.2,2.6,1.7c0.9,0.4,2,0.7,3.1,0.7c0.7,0,1.4-0.1,2.1-0.2
		C200.7,56.5,201.3,56.2,202,55.9 M187.7,35.3c0,0.5,0,1-0.1,1.5c-0.1,0.5-0.2,1-0.3,1.5c-0.2,0.5-0.4,1-0.7,1.4
		c-0.2,0.4-0.6,0.8-0.9,1.1c-0.4,0.3-0.9,0.5-1.5,0.5c-0.6,0.1-1.1,0.1-1.6,0.1c-1.2,0-2.3-0.1-3.4-0.2V27.6
		c0.7-0.2,1.5-0.4,2.3-0.4c1,0,2,0.2,2.7,0.7c0.8,0.5,1.5,1.1,2,1.9c0.5,0.7,0.9,1.6,1.2,2.6C187.5,33.3,187.7,34.3,187.7,35.3"/>
	<path class="st2" d="M225.4,41.7c0-2-0.3-4-0.9-6.1c-0.6-2.1-1.5-3.9-2.8-5.6c-1.3-1.6-2.9-3-4.8-4c-1.9-1-4.2-1.6-6.8-1.6
		c-0.4,0-0.8,0-1.2,0.1c-0.4,0-0.8,0.1-1.2,0.2c-2.6,0.5-4.8,1.3-6.6,2.2c-1.8,0.9-3.3,2-4.4,3.4c-1.2,1.4-2,3-2.5,4.9
		c-0.5,1.9-0.8,4-0.8,6.4c0,1.2,0.2,2.4,0.7,3.6c0.4,1.2,1,2.4,1.8,3.5c0.7,1.1,1.6,2.1,2.6,3.1c1,1,2.1,1.8,3.2,2.5
		c1.1,0.7,2.3,1.2,3.5,1.6c1.2,0.4,2.4,0.6,3.5,0.6h0.6c0.3,0,0.5,0,0.8,0c0.3,0,0.5,0,0.7,0c0.3,0,0.5-0.1,0.6-0.1
		c1.9-0.4,3.7-1.1,5.4-1.9c1.7-0.8,3.2-1.8,4.4-3c1.3-1.2,2.3-2.6,3-4.3C225.1,45.7,225.4,43.8,225.4,41.7 M221.3,41.6
		c0,1.7-0.2,3.4-0.7,5c-0.5,1.6-1.2,2.9-2.2,4.1c-0.9,1.2-2.1,2.1-3.5,2.8c-1.4,0.7-3,1-4.9,1c-2,0-3.7-0.4-5.2-1.3
		c-1.5-0.9-2.8-2.1-3.8-3.5c-1-1.4-1.8-3-2.4-4.8c-0.5-1.8-0.8-3.6-0.8-5.4c0-1.8,0.2-3.4,0.7-4.9c0.5-1.6,1.3-2.9,2.2-4.1
		c1-1.2,2.2-2.1,3.6-2.8c1.4-0.7,3.1-1,4.9-1c1.9,0,3.7,0.4,5.1,1.3c1.5,0.9,2.8,2,3.8,3.4c1,1.4,1.8,3,2.3,4.8
		C221,38,221.3,39.8,221.3,41.6"/>
	<path class="st2" d="M255.5,26.8l-0.1-0.7c-1-0.1-2-0.1-3,0h-2.9h-3c-0.2,0-0.4,0.1-0.5,0.2c-0.1,0.1,0,0.3,0.2,0.4
		c0.1,0.2,0.3,0.3,0.5,0.3c0.2,0.1,0.5,0.1,0.8,0.2c0.2,0.1,0.5,0.1,0.7,0.2c0.2,0.1,0.5,0.2,0.7,0.4c0.2,0.2,0.4,0.4,0.5,0.8
		c0.1,0.4,0.2,0.9,0.2,1.5c0,3,0,6,0.1,9c0.1,3,0.2,6,0.2,9c0,0.2,0,0.4,0,0.7v0.6c-7.3-8-14.7-15.9-22.3-23.7
		c-0.2-0.2-0.4-0.2-0.7,0c-0.2,0.2-0.3,0.3-0.4,0.5c-0.1,0.1-0.2,0.3-0.2,0.5v26c0,0.7-0.2,1.3-0.6,1.7c-0.4,0.4-0.9,0.7-1.5,0.8
		l-0.6,0.1c-0.2,0.1-0.4,0.2-0.5,0.4c0,0.2,0.1,0.3,0.3,0.4c0.7,0.1,1.4,0.2,2.1,0.1c0.7-0.1,1.5-0.2,2.2-0.1l5.2,0.1
		c0.2,0,0.4-0.1,0.5-0.2c0.1-0.2,0-0.3-0.2-0.4c-0.3-0.2-0.6-0.3-0.9-0.4c-0.3-0.1-0.5-0.2-0.8-0.2c-0.2-0.1-0.5-0.1-0.7-0.2
		c-0.2-0.1-0.5-0.3-0.7-0.5c-0.2-0.2-0.3-0.5-0.4-0.9c-0.1-0.4-0.2-0.9-0.2-1.6c0-1.4,0-2.7-0.1-4.1c-0.1-1.4-0.1-2.8-0.2-4.2
		c-0.1-1.4-0.1-2.7-0.2-4c-0.1-1.3-0.1-2.7-0.1-4.1c0-0.7,0-1.5,0.1-2.3c0.5,0.5,0.9,1,1.2,1.4c0.3,0.4,0.7,0.8,1.2,1.4
		c1.6,1.7,3.2,3.5,4.8,5.3c1.6,1.8,3.3,3.6,4.9,5.4c1.7,1.8,3.4,3.5,5.1,5.2c1.7,1.7,3.5,3.3,5.2,4.7c0.2,0.1,0.3,0.1,0.5,0.1
		c0.2-0.1,0.3-0.2,0.3-0.3c0.4-4.6,0.5-9.1,0.4-13.7c0-4.6,0-9.2,0-13.8c0-0.5,0.2-0.8,0.6-1c0.4-0.2,0.9-0.3,1.3-0.5
		c0.1,0,0.2-0.1,0.2-0.2C255.3,26.8,255.4,26.8,255.5,26.8"/>
	<path class="st2" d="M10.7,81h5.4l0.1-0.5c-1.6-0.1-1.7-0.3-2-1.7c-0.5-2.8-1-5.7-1.5-8.6L12,65.9l-0.6,0.2L4.6,78.2
		c-1.1,1.9-1.5,2.2-2.8,2.3L1.6,81h4.8l0.1-0.5l-1-0.1c-0.7-0.1-0.8-0.3-0.1-1.6c0.5-1,1.4-2.8,1.8-3.4h4.7l0.6,3.8
		c0.1,0.9,0,1.1-0.7,1.2l-1,0.1L10.7,81z M10.7,68.8L10.7,68.8l1,5.8H7.6L10.7,68.8z"/>
	<path class="st2" d="M21.4,78.3c-0.6,0.5-1.7,1.4-2,1.4c-0.2,0-0.2-0.3-0.1-0.7l2.8-13.2c0.1-0.5,0.1-0.9-0.2-0.9
		c-0.2,0-1.7,0.5-3.5,0.9v0.4h1.2c0.7,0,0.8,0.1,0.6,1.1L17.7,79c-0.4,1.8,0,2.3,0.4,2.3c0.4,0,2.6-1.3,3.5-2.6L21.4,78.3z"/>
	<path class="st2" d="M27.1,78.3c-0.6,0.5-1.7,1.4-2,1.4c-0.2,0-0.2-0.3-0.1-0.7l2.8-13.2c0.1-0.5,0.1-0.9-0.2-0.9
		c-0.2,0-1.7,0.5-3.5,0.9v0.4h1.2c0.7,0,0.8,0.1,0.6,1.1L23.4,79c-0.4,1.8,0,2.3,0.4,2.3c0.4,0,2.6-1.3,3.5-2.6L27.1,78.3z"/>
	<path class="st2" d="M42.1,80.7c0.1-1.3,0.7-3.8,0.9-4.2c0.7-1.3,3.4-4.2,4.6-4.2c0.6,0,0.5,0.7,0.2,1.8l-1.3,5.5
		c-0.3,1.2-0.2,1.8,0.4,1.8c0.3,0,2.2-1,3.4-2.2L50,78.7c-0.7,0.5-1.5,1-1.7,1c-0.2,0-0.1-0.2,0-1c0.4-1.9,0.9-3.7,1.3-5.4
		c0.6-2.3-0.2-2.5-0.5-2.5c-0.2,0-0.6,0.1-1,0.3c-1,0.5-2.7,1.6-4.6,3.9h-0.1l0.5-2.1c0.3-1.2,0.4-2-0.3-2c-0.5,0-2.1,1.1-3.4,2.3
		l0.2,0.5c0.6-0.6,1.5-1.1,1.7-1.1c0.2,0,0.1,0.4-0.1,1.3l-0.8,3.8c-0.3,1.5-0.5,2.5-0.8,3.7L42.1,80.7z"/>
	<path class="st2" d="M58.3,78.5C57.7,79,56.5,80,55.3,80c-1.2,0-1.6-1-1.6-2.4c0-1.6,0.5-3.3,1.1-4.4c0.5-0.9,1.1-1.4,1.8-1.4
		c0.6,0,1.2,0.4,1.6,0.9c0.2,0.3,0.5,0.2,0.8,0c0.4-0.2,0.6-0.6,0.6-0.9c0-0.5-0.7-1-1.5-1c-1.5,0-2.9,0.8-3.9,1.6
		c-1.6,1.4-2.4,3.8-2.4,5.6c0,2,0.9,3.2,2.3,3.2c1,0,3.1-0.8,4.5-2.4L58.3,78.5z"/>
	<path class="st2" d="M64.3,78.3c-0.6,0.5-1.7,1.4-2,1.4c-0.2,0-0.2-0.3-0.1-0.7L65,65.8c0.1-0.5,0.1-0.9-0.2-0.9
		c-0.2,0-1.7,0.5-3.5,0.9v0.4h1.2c0.7,0,0.8,0.1,0.5,1.1L60.6,79c-0.4,1.8,0,2.3,0.4,2.3c0.4,0,2.6-1.3,3.5-2.6L64.3,78.3z"/>
	<path class="st2" d="M74.3,71.5c-0.2,1.3-0.6,2.9-0.8,3.4c-0.5,1.2-3.4,4.9-4.6,4.9c-0.6,0-0.5-0.7-0.2-2.1l1.2-5.4
		c0.2-0.9,0.2-1.5-0.4-1.5c-0.5,0-2.1,1.1-3.3,2.3l0.3,0.5c0.6-0.6,1.5-1.1,1.7-1.1c0.2,0,0.1,0.4-0.1,1.3l-1.1,4.8
		c-0.5,2.4,0.3,2.7,0.6,2.7c0.6,0,1.3-0.4,1.9-0.8c1.4-0.9,2.7-2.5,3.7-3.9h0.1l-0.6,2.9c-0.3,1.2-0.1,1.8,0.4,1.8
		c0.3,0,2.2-1,3.4-2.2l-0.3-0.5c-0.6,0.5-1.5,1-1.7,1c-0.2,0-0.1-0.3,0-1l1.7-7.9h-0.2L74.3,71.5z"/>
	<path class="st2" d="M79.3,81.3c2,0,4-2,4-3.7c0-0.8-0.2-1.4-1.7-2.3c-0.7-0.5-1.7-1.1-1.7-1.8c0-0.8,0.6-1.4,1.3-1.4
		c0.8,0,1.3,0.4,1.7,0.9c0.1,0.2,0.4,0.2,0.7-0.1c0.3-0.3,0.4-0.5,0.4-0.8c0-0.5-0.8-1-1.6-1c-1,0-2.1,0.7-2.7,1.2
		c-1.1,1-1.2,1.9-1.2,2.3c0,1.1,1.2,1.6,2.1,2.4c1.1,0.8,1.2,1.4,1.2,1.9c0,0.8-0.7,1.4-1.4,1.4c-0.6,0-1.4-0.2-2.1-1
		c-0.2-0.2-0.4-0.3-0.7-0.1c-0.4,0.2-0.7,0.6-0.7,0.9C77.1,80.7,78.4,81.3,79.3,81.3"/>
	<path class="st2" d="M89.4,78.4c-0.8,0.6-1.7,1.2-1.9,1.2c-0.2,0-0.2-0.3,0-0.8l1.5-6.3c0.2-0.9,0.5-1.7-0.2-1.7
		c-0.5,0-2.5,1.1-3.8,2.3l0.2,0.5c0.5-0.5,1.6-1.1,1.9-1.1c0.2,0,0.2,0.2,0,1.1l-1.5,6.3c-0.3,1.1,0.1,1.4,0.4,1.4
		c0.7,0,2.9-1.8,3.6-2.5L89.4,78.4z M88.8,67.7c0.7,0,1.2-0.6,1.2-1.3c0-0.5-0.3-0.9-1-0.9c-0.8,0-1.3,0.8-1.3,1.4
		C87.9,67.4,88.2,67.7,88.8,67.7"/>
	<path class="st2" d="M93.9,81.3c1.4-1.7,3.4-4.4,4.7-6.2c1.2-1.6,1.6-2.3,1.6-3c0-0.8-0.5-1.2-1-1.2c-0.6,0-1,0.5-1,1.1
		c0,0.2,0.2,0.4,0.2,0.9c0,0.9-0.8,2.2-1.5,3.3c-0.6,0.9-1.4,2-2.1,2.9h0c0-2.1-0.1-4.5-0.2-5.8c-0.1-1.6-0.2-2.4-0.7-2.4
		c-0.8,0-2.1,1.4-3.1,2.5l0.2,0.4c0.9-0.8,1.4-1.1,1.6-1.1c0.3,0,0.4,0.7,0.5,1.7c0.1,0.9,0.2,5.2,0.3,7H93.9z"/>
	<path class="st2" d="M107.8,78.2c-1.4,1.4-2.6,1.8-3.4,1.8c-1.5,0-1.7-1.6-1.7-2.7c0-0.1,0-0.4,0.1-0.5c2.2-0.6,6-2.1,6-4.2
		c0-0.9-0.8-1.7-1.9-1.7c-1,0-2.3,0.6-3.4,1.4c-1.7,1.3-2.6,3.6-2.6,5.7c0,2.7,1.5,3.3,2.3,3.3c0.8,0,2.7-0.3,5-2.6L107.8,78.2z
		 M102.8,76.1c0.4-2.5,1.5-3.7,2.2-4.1c0.2-0.1,0.5-0.2,0.8-0.2c0.5,0,1.1,0.3,1.1,1.1C107,74.1,106,75.1,102.8,76.1"/>
	<path class="st2" d="M119.3,72.7l0.6-3.2c0.5-2.5,0.7-2.6,2.5-2.8l0.1-0.5h-5.9l-0.1,0.5c1.9,0.1,2,0.3,1.6,2.8l-1.5,8.2
		c-0.5,2.5-0.7,2.6-2.6,2.8L114,81h5.9l0.1-0.5c-1.9-0.1-2.1-0.3-1.6-2.8l0.8-4.1h7.7l-0.8,4.1c-0.5,2.5-0.7,2.6-2.5,2.8l-0.1,0.5
		h5.9l0.1-0.5c-1.9-0.1-2-0.3-1.5-2.8l1.5-8.2c0.5-2.5,0.7-2.6,2.5-2.8l0.1-0.5h-5.9l-0.1,0.5c1.9,0.1,2,0.3,1.6,2.8l-0.6,3.2H119.3
		z"/>
	<path class="st2" d="M137.4,70.9c-0.6,0-1.5,0.3-2.5,0.8c-1.6,0.9-3.3,3.1-3.3,6.2c0,1.6,0.8,3.4,2.9,3.4c1,0,2.4-0.7,3.4-1.5
		c1.5-1.4,2.4-3.7,2.4-5.7C140.3,72.1,139.3,70.9,137.4,70.9 M133.4,77.4c0-3.4,1.7-5.2,2.4-5.5c0.2-0.1,0.5-0.2,0.8-0.2
		c1.1,0,1.8,0.9,1.8,2.6c0,3-1.5,5.7-2.5,6c-0.2,0.1-0.5,0.2-0.7,0.2C134,80.5,133.4,79.1,133.4,77.4"/>
	<path class="st2" d="M146.6,78.2c-0.5,0.5-1.6,1.6-2.1,1.6c-0.2,0-0.3-0.5-0.1-1.6l1.3-6l2.4-0.1l0.7-0.7h-2.9l0.7-3l-0.2-0.1
		l-1.7,1.4l-0.4,1.7h-1.5l-0.6,0.5l0.2,0.3h1.8l-1.4,6.5c-0.4,1.8,0,2.6,0.5,2.6c1.1,0,3.1-1.8,3.8-2.8L146.6,78.2z"/>
	<path class="st2" d="M155.5,78.2c-1.4,1.4-2.6,1.8-3.4,1.8c-1.5,0-1.7-1.6-1.7-2.7c0-0.1,0-0.4,0.1-0.5c2.2-0.6,6-2.1,6-4.2
		c0-0.9-0.8-1.7-1.9-1.7c-1,0-2.3,0.6-3.4,1.4c-1.7,1.3-2.6,3.6-2.6,5.7c0,2.7,1.5,3.3,2.3,3.3c0.8,0,2.7-0.3,5-2.6L155.5,78.2z
		 M150.5,76.1c0.4-2.5,1.5-3.7,2.2-4.1c0.2-0.1,0.5-0.2,0.8-0.2c0.5,0,1.1,0.3,1.1,1.1C154.6,74.1,153.7,75.1,150.5,76.1"/>
	<path class="st2" d="M161.5,78.3c-0.6,0.5-1.7,1.4-2,1.4c-0.2,0-0.2-0.3-0.1-0.7l2.8-13.2c0.1-0.5,0.1-0.9-0.2-0.9
		c-0.2,0-1.7,0.5-3.5,0.9v0.4h1.2c0.7,0,0.8,0.1,0.5,1.1L157.8,79c-0.4,1.8,0,2.3,0.4,2.3c0.4,0,2.6-1.3,3.5-2.6L161.5,78.3z"/>
	<path class="st2" d="M164.5,81.3c2,0,4-2,4-3.7c0-0.8-0.2-1.4-1.7-2.3c-0.7-0.5-1.7-1.1-1.7-1.8c0-0.8,0.6-1.4,1.3-1.4
		c0.8,0,1.3,0.4,1.7,0.9c0.1,0.2,0.4,0.2,0.7-0.1c0.3-0.3,0.4-0.5,0.4-0.8c0-0.5-0.8-1-1.6-1c-1.1,0-2.1,0.7-2.7,1.2
		c-1.1,1-1.2,1.9-1.2,2.3c0,1.1,1.2,1.6,2.1,2.4c1.1,0.8,1.2,1.4,1.2,1.9c0,0.8-0.7,1.4-1.4,1.4c-0.6,0-1.4-0.2-2.1-1
		c-0.2-0.2-0.4-0.3-0.7-0.1c-0.4,0.2-0.7,0.6-0.7,0.9C162.4,80.7,163.7,81.3,164.5,81.3"/>
	<path class="st2" d="M186.1,72.4c-0.5,0-1.1,0-1.8-0.1l-0.1,0.1c0.3,0.1,0.5,0.2,0.7,0.4c0.1,0.2,0.2,0.4,0.2,0.6
		c0,0.2,0,0.4-0.1,0.6c0,0.2-0.1,0.4-0.2,0.6c-0.5,1.1-1,2-1.6,2.6l-2.4-4.2c0.4-0.1,0.7-0.3,1.1-0.6c0.4-0.3,0.7-0.6,1-0.9
		c0.3-0.3,0.6-0.7,0.8-1.1c0.2-0.4,0.3-0.8,0.3-1.1c0-0.7-0.3-1.3-0.8-1.8c-0.5-0.4-1.1-0.7-1.8-0.7c-0.6,0-1.1,0.1-1.5,0.3
		c-0.4,0.2-0.8,0.5-1,0.8c-0.3,0.3-0.4,0.7-0.6,1.1c-0.1,0.4-0.2,0.7-0.2,1.1c0,0.4,0,0.8,0.1,1.2c0.1,0.4,0.2,0.7,0.5,1.1l0.5,0.8
		c-1.3,0.6-2.4,1.3-3.1,2c-0.7,0.8-1.1,1.7-1.1,2.7c0,0.4,0.1,0.8,0.3,1.2c0.2,0.4,0.5,0.8,0.9,1.1c0.4,0.3,0.8,0.6,1.2,0.7
		c0.4,0.2,0.9,0.3,1.3,0.3c0.3,0,0.7-0.1,1-0.2c0.4-0.1,0.7-0.3,1-0.5c0.3-0.2,0.6-0.4,0.9-0.7c0.3-0.2,0.6-0.5,0.8-0.8
		c0.4,0.7,1,1.2,1.7,1.6c0.7,0.4,1.5,0.6,2.3,0.6c0.4,0,0.8-0.1,1.2-0.3c0.4-0.2,0.8-0.4,1-0.7l-0.2-0.4c-0.2,0.2-0.5,0.3-0.8,0.3
		c-0.3,0-0.7,0.1-1.1,0.1c-0.5,0-0.9-0.2-1.3-0.5c-0.4-0.3-0.8-0.9-1.3-1.7l-0.2-0.4c0.4-0.4,0.8-0.9,1.1-1.5
		c0.4-0.6,0.7-1.1,0.9-1.7c0.2-0.5,0.6-1,1-1.3c0.4-0.3,0.9-0.6,1.4-0.8l0.1-0.1c-0.2,0-0.4,0-0.7,0
		C186.8,72.3,186.4,72.4,186.1,72.4 M179.3,69.5c0-0.2,0-0.4,0.1-0.6c0.1-0.2,0.2-0.5,0.4-0.7c0.2-0.2,0.4-0.4,0.6-0.5
		c0.2-0.1,0.5-0.2,0.7-0.2c0.2,0,0.4,0,0.6,0.1c0.2,0,0.4,0.1,0.5,0.2c0.2,0.1,0.3,0.3,0.4,0.5c0.1,0.2,0.2,0.5,0.2,0.9
		c0,0.7-0.2,1.3-0.7,1.9c-0.4,0.6-1,1.1-1.7,1.4l-0.8-1.3c-0.2-0.3-0.3-0.6-0.4-0.8C179.3,70.2,179.3,69.9,179.3,69.5 M176.9,77.1
		c0-0.8,0.2-1.4,0.7-2.1c0.5-0.6,1.1-1.1,1.8-1.4l2.7,4.9c-0.5,0.4-1,0.7-1.5,0.9c-0.5,0.2-1.1,0.2-1.7,0.2c-0.3,0-0.6-0.1-0.8-0.2
		c-0.2-0.2-0.4-0.4-0.6-0.6c-0.2-0.3-0.3-0.5-0.4-0.8C176.9,77.6,176.9,77.3,176.9,77.1"/>
	<path class="st2" d="M200.6,67.6c0.1-0.3,0.1-0.6,0.3-0.6c0.2,0,0.6-0.1,1.2-0.1c1.9,0,2.9,1,2.9,2.8c0,1.5-0.7,2.8-2,3.6
		c-0.8,0.5-1.5,0.6-2.5,0.6h-1.2L200.6,67.6z M200.5,74.5c0.7,0,0.9,0.1,1.2,0.8c0.4,1.1,1.1,2.5,1.7,3.8c0.7,1.3,1.3,2,3.5,2.1
		l0.6,0l0.1-0.4c-0.8-0.2-1.1-0.5-1.5-1c-0.5-0.6-0.9-1.4-1.6-2.6c-0.5-1-1.2-2.4-1.4-3.1c2-0.6,3.9-2,3.9-4.3
		c0-1.4-0.5-2.3-1.4-2.8c-0.8-0.5-2-0.7-3.2-0.7H197l-0.1,0.5c1.9,0.1,2,0.3,1.6,2.8l-1.6,8.2c-0.5,2.5-0.7,2.6-2.5,2.8l-0.1,0.5
		h5.8l0.1-0.5c-1.9-0.1-2.1-0.3-1.6-2.8l0.6-3.2H200.5z"/>
	<path class="st2" d="M215.6,78.2c-1.4,1.4-2.6,1.8-3.4,1.8c-1.5,0-1.7-1.6-1.7-2.7c0-0.1,0-0.4,0.1-0.5c2.2-0.6,6-2.1,6-4.2
		c0-0.9-0.8-1.7-1.9-1.7c-1,0-2.3,0.6-3.3,1.4c-1.7,1.3-2.6,3.6-2.6,5.7c0,2.7,1.5,3.3,2.3,3.3c0.8,0,2.7-0.3,5-2.6L215.6,78.2z
		 M210.6,76.1c0.4-2.5,1.5-3.7,2.2-4.1c0.2-0.1,0.5-0.2,0.8-0.2c0.5,0,1.1,0.3,1.1,1.1C214.7,74.1,213.7,75.1,210.6,76.1"/>
	<path class="st2" d="M218.9,81.3c2,0,4-2,4-3.7c0-0.8-0.3-1.4-1.7-2.3c-0.7-0.5-1.7-1.1-1.7-1.8c0-0.8,0.6-1.4,1.3-1.4
		c0.7,0,1.3,0.4,1.7,0.9c0.1,0.2,0.4,0.2,0.7-0.1c0.3-0.3,0.4-0.5,0.4-0.8c0-0.5-0.8-1-1.6-1c-1,0-2.1,0.7-2.7,1.2
		c-1.1,1-1.2,1.9-1.2,2.3c0,1.1,1.2,1.6,2.1,2.4c1.1,0.8,1.2,1.4,1.2,1.9c0,0.8-0.7,1.4-1.4,1.4c-0.6,0-1.4-0.2-2-1
		c-0.2-0.2-0.4-0.3-0.7-0.1c-0.4,0.2-0.7,0.6-0.7,0.9C216.8,80.7,218.1,81.3,218.9,81.3"/>
	<path class="st2" d="M230.6,70.9c-0.6,0-1.5,0.3-2.5,0.8c-1.6,0.9-3.3,3.1-3.3,6.2c0,1.6,0.8,3.4,2.9,3.4c1,0,2.4-0.7,3.4-1.5
		c1.5-1.4,2.4-3.7,2.4-5.7C233.5,72.1,232.5,70.9,230.6,70.9 M226.7,77.4c0-3.4,1.7-5.2,2.4-5.5c0.2-0.1,0.5-0.2,0.8-0.2
		c1.1,0,1.8,0.9,1.8,2.6c0,3-1.5,5.7-2.5,6c-0.2,0.1-0.5,0.2-0.7,0.2C227.2,80.5,226.7,79.1,226.7,77.4"/>
	<path class="st2" d="M238.5,70.9c-0.6,0-2.1,1.1-3.3,2.3l0.2,0.5c0.5-0.5,1.5-1.1,1.7-1.1c0.2,0,0.1,0.4-0.1,1.6l-0.8,3.6
		c-0.3,1.2-0.5,2.4-0.8,3.6l1.8-0.6c0.1-0.9,0.4-2.4,0.9-4.6c0.3-0.9,0.7-1.7,1.3-2.5c0.6-0.8,1-1,1.2-1c0.2,0,0.5,0.1,0.7,0.3
		c0.2,0.2,0.4,0.1,0.6,0c0.2-0.2,0.4-0.4,0.6-0.7c0.1-0.3,0.1-0.6,0-0.8c-0.2-0.3-0.6-0.6-1.1-0.6c-0.6,0-2,1.4-3.1,3.4h0l0.3-1.4
		C239,71.7,239,70.9,238.5,70.9"/>
	<path class="st2" d="M248.3,78.2c-0.5,0.5-1.6,1.6-2.1,1.6c-0.2,0-0.3-0.5-0.1-1.6l1.3-6l2.4-0.1l0.7-0.7h-2.9l0.7-3l-0.2-0.1
		l-1.7,1.4l-0.4,1.7h-1.5l-0.6,0.5l0.2,0.3h1.8l-1.4,6.5c-0.4,1.8,0,2.6,0.4,2.6c1.1,0,3.1-1.8,3.9-2.8L248.3,78.2z"/>
	<path class="st2" d="M251.8,81.3c2,0,4-2,4-3.7c0-0.8-0.3-1.4-1.7-2.3c-0.7-0.5-1.7-1.1-1.7-1.8c0-0.8,0.6-1.4,1.3-1.4
		c0.8,0,1.3,0.4,1.7,0.9c0.1,0.2,0.4,0.2,0.7-0.1c0.3-0.3,0.4-0.5,0.4-0.8c0-0.5-0.8-1-1.6-1c-1,0-2.1,0.7-2.7,1.2
		c-1.1,1-1.2,1.9-1.2,2.3c0,1.1,1.2,1.6,2.1,2.4c1.1,0.8,1.2,1.4,1.2,1.9c0,0.8-0.7,1.4-1.4,1.4c-0.6,0-1.4-0.2-2-1
		c-0.2-0.2-0.4-0.3-0.7-0.1c-0.4,0.2-0.7,0.6-0.7,0.9C249.6,80.7,250.9,81.3,251.8,81.3"/>
	<path class="st2" d="M36.4,78.6c-0.1,0.3-0.2,1.1-0.2,1.2c0,0.2,0,0.6,0.5,0.6l0.9,0.1L37.5,81h-4.9l0.1-0.5l0.9-0.1
		c0.6-0.1,0.7-0.5,1-1.8l2-9.9c0.1-0.3,0.2-1.1,0.2-1.2c0-0.2,0-0.6-0.5-0.6l-0.9-0.1l0.1-0.5h4.9l-0.1,0.5l-0.9,0.1
		c-0.6,0.1-0.8,0.5-1,1.8L36.4,78.6z"/>
</g>
</svg>
