<?xml version="1.0" encoding="utf-8"?>
<!-- Generator: Adobe Illustrator 19.2.1, SVG Export Plug-In . SVG Version: 6.00 Build 0)  -->
<svg version="1.1" id="Capa_1" xmlns="http://www.w3.org/2000/svg" xmlns:xlink="http://www.w3.org/1999/xlink" x="0px" y="0px"
	 viewBox="0 0 120 252.4" style="enable-background:new 0 0 120 252.4;" xml:space="preserve">
<style type="text/css">
	.st0{fill:#4E1C6E;}
	.st1{fill:#B35D27;}
	.st2{fill:#D1A54D;}
	.st3{fill:#90A639;}
	.st4{fill:#A23369;}
	.st5{fill:#FFFFFF;}
</style>
<symbol  id="globo" viewBox="-14.6 -18.8 29.1 37.6">
	<path class="st0" d="M-1.7,17l-5.2-1.9c-0.4-0.1-0.9,0.1-1,0.5L-8,15.9c-0.1,0.4,0.1,0.9,0.5,1l5.2,1.9c0.4,0.1,0.9-0.1,1-0.5
		l0.1-0.2C-1.1,17.6-1.3,17.2-1.7,17z"/>
	<path class="st1" d="M-8.8,7.1l-4.6-1.6c-0.4-0.1-0.9,0.1-1,0.5l-0.1,0.2c-0.1,0.4,0.1,0.9,0.5,1l4.6,1.6C-9,9-8.6,8.8-8.4,8.4
		l0.1-0.2C-8.2,7.7-8.4,7.3-8.8,7.1z"/>
	<path class="st1" d="M9.1,13.6L4.6,12c-0.4-0.1-0.9,0.1-1,0.5l-0.1,0.2c-0.1,0.4,0.1,0.9,0.5,1l4.6,1.6c0.4,0.1,0.9-0.1,1-0.5
		l0.1-0.2C9.8,14.2,9.6,13.8,9.1,13.6z"/>
	<path class="st1" d="M11.1,11.9l-4.2-1.5c-0.4-0.1-0.9,0.1-1,0.5l-0.1,0.2c-0.1,0.4,0.1,0.9,0.5,1l4.2,1.5c0.4,0.1,0.9-0.1,1-0.5
		l0.1-0.2C11.7,12.5,11.5,12.1,11.1,11.9z"/>
	<path class="st2" d="M12.2,10L8.4,8.7C8,8.5,7.6,8.7,7.4,9.2L7.3,9.4c-0.1,0.4,0.1,0.9,0.5,1l3.8,1.4c0.4,0.1,0.9-0.1,1-0.5
		l0.1-0.2C12.9,10.6,12.6,10.2,12.2,10z"/>
	<path class="st2" d="M13.1,8L9.3,6.6c-0.4-0.1-0.9,0.1-1,0.5L8.2,7.4c-0.1,0.4,0.1,0.9,0.5,1l3.8,1.3c0.4,0.1,0.9-0.1,1-0.5L13.6,9
		C13.7,8.6,13.5,8.1,13.1,8z"/>
	<path class="st2" d="M-9.2-0.3L-13-1.7c-0.4-0.1-0.9,0.1-1,0.5l-0.1,0.2c-0.1,0.4,0.1,0.9,0.5,1l3.8,1.3c0.4,0.1,0.9-0.1,1-0.5
		l0.1-0.2C-8.6,0.3-8.8-0.2-9.2-0.3z"/>
	<path class="st2" d="M-9.6,1.9l-3.8-1.3c-0.4-0.1-0.9,0.1-1,0.5l-0.1,0.2c-0.1,0.4,0.1,0.9,0.5,1l3.8,1.3c0.4,0.1,0.9-0.1,1-0.5
		l0.1-0.2C-9,2.5-9.2,2.1-9.6,1.9z"/>
	<path class="st1" d="M-9.6,4.3l-3.8-1.3c-0.4-0.1-0.9,0.1-1,0.5l-0.1,0.2c-0.1,0.4,0.1,0.9,0.5,1l3.8,1.3c0.4,0.1,0.9-0.1,1-0.5
		l0.1-0.2C-9,4.9-9.2,4.4-9.6,4.3z"/>
	<path class="st2" d="M13.8,5.8L10,4.5C9.6,4.4,9.2,4.6,9,5L8.9,5.2C8.8,5.6,9,6.1,9.4,6.2l3.8,1.3c0.4,0.1,0.9-0.1,1-0.5l0.1-0.2
		C14.4,6.4,14.2,6,13.8,5.8z"/>
	<path class="st3" d="M14,3.3l-4-1.4C9.6,1.8,9.2,2,9,2.4L8.9,2.6C8.8,3,9,3.5,9.4,3.6l4,1.4c0.4,0.1,0.9-0.1,1-0.5l0.1-0.2
		C14.7,3.9,14.4,3.5,14,3.3z"/>
	<path class="st3" d="M-6.5-4.1l-4-1.4c-0.4-0.1-0.9,0.1-1,0.5l-0.1,0.2c-0.1,0.4,0.1,0.9,0.5,1l4,1.4c0.4,0.1,0.9-0.1,1-0.5L-6-3.1
		C-5.9-3.5-6.1-4-6.5-4.1z"/>
	<path class="st2" d="M-7.8-2.3L-12-3.8c-0.4-0.1-0.9,0.1-1,0.5l-0.1,0.2c-0.1,0.4,0.1,0.9,0.5,1l4.1,1.5c0.4,0.1,0.9-0.1,1-0.5
		l0.1-0.2C-7.2-1.7-7.4-2.2-7.8-2.3z"/>
	<path class="st3" d="M13.7,0.9L9.3-0.7c-0.4-0.1-0.9,0.1-1,0.5L8.2,0C8.1,0.4,8.3,0.9,8.7,1l4.4,1.6c0.4,0.1,0.9-0.1,1-0.5l0.1-0.2
		C14.4,1.5,14.2,1,13.7,0.9z"/>
	<path class="st3" d="M-4.1-5.7l-5.6-2c-0.4-0.1-0.9,0.1-1,0.5L-10.8-7c-0.1,0.4,0.1,0.9,0.5,1l5.6,2c0.4,0.1,0.9-0.1,1-0.5l0.1-0.2
		C-3.5-5.1-3.7-5.6-4.1-5.7z"/>
	<path class="st0" d="M3.4,16.4L-11,11.2c-0.4-0.1-0.9,0.1-1,0.5l-0.1,0.2c-0.1,0.4,0.1,0.9,0.5,1l14.4,5.2c0.4,0.1,0.9-0.1,1-0.5
		l0.1-0.2C4.1,17,3.9,16.5,3.4,16.4z"/>
	<path class="st1" d="M6.9,15.2l-19.5-7c-0.4-0.1-0.9,0.1-1,0.5l-0.1,0.2c-0.1,0.4,0.1,0.9,0.5,1l19.5,7c0.4,0.1,0.9-0.1,1-0.5
		l0.1-0.2C7.5,15.8,7.3,15.3,6.9,15.2z"/>
	<path class="st3" d="M13-1.9L-7.7-9.3c-0.4-0.1-0.9,0.1-1,0.5l-0.1,0.2c-0.1,0.4,0.1,0.9,0.5,1l20.7,7.4c0.4,0.1,0.9-0.1,1-0.5
		l0.1-0.2C13.6-1.3,13.4-1.7,13-1.9z"/>
	<path class="st4" d="M11.5-4.8l-17.8-6.4c-0.4-0.1-0.9,0.1-1,0.5l-0.1,0.2c-0.1,0.4,0.1,0.9,0.5,1l17.8,6.4c0.4,0.1,0.9-0.1,1-0.5
		L12-3.8C12.1-4.2,11.9-4.7,11.5-4.8z"/>
	<path class="st4" d="M9.8-7.9L-5-13.1c-0.4-0.1-0.9,0.1-1,0.5l-0.1,0.2c-0.1,0.4,0.1,0.9,0.5,1L9.2-6.1c0.4,0.1,0.9-0.1,1-0.5
		l0.1-0.2C10.4-7.3,10.2-7.7,9.8-7.9z"/>
	<path class="st4" d="M7.1-11.2L-3.4-15c-0.4-0.1-0.9,0.1-1,0.5l-0.1,0.2c-0.1,0.4,0.1,0.9,0.5,1L6.5-9.5c0.4,0.1,0.9-0.1,1-0.5
		l0.1-0.2C7.7-10.6,7.5-11.1,7.1-11.2z"/>
	<path class="st4" d="M3.9-14.9l-5.7-2c-0.4-0.1-0.9,0.1-1,0.5l-0.1,0.2c-0.1,0.4,0.1,0.9,0.5,1l5.7,2c0.4,0.1,0.9-0.1,1-0.5
		l0.1-0.2C4.5-14.3,4.3-14.8,3.9-14.9z"/>
	<ellipse class="st4" cx="0.1" cy="-17.8" rx="1" ry="1"/>
</symbol>
<use xlink:href="#globo"  width="29.1" height="37.6" id="XMLID_1_" x="-14.6" y="-18.8" transform="matrix(3.631 0 0 -3.631 61.1179 73.6398)" style="overflow:visible;"/>
<g>
	<path class="st5" d="M17,167.2l2.2-9.8l2.2-8.3h2.8l-6,22.4h-2.5l-6-22.4h2.8l2.2,8.3L17,167.2z"/>
	<path class="st5" d="M27.6,171.4v-22.3h2.8v22.3H27.6z"/>
	<path class="st5" d="M45.5,171.4l-1.1-4.1h-6.7l-1.1,4.1h-2.9l5.9-22.3h2.8l5.9,22.3H45.5z M41,152.7l-1.5,7.3l-1.1,4.7h5.3
		l-1.2-4.7L41,152.7z"/>
	<path class="st5" d="M49.4,164.7H52c0,3,0.7,4.2,3.4,4.2c2.9,0,3.2-1.4,3.2-4.9v-15h2.8V164c0,4.9-0.9,7.6-6,7.6
		C50.4,171.6,49.4,169,49.4,164.7z"/>
	<path class="st5" d="M77.4,149.1v2.4h-8.5v6.7h7.7v2.6h-7.7v8h9.2v2.6h-12v-22.3H77.4z"/>
	<path class="st5" d="M90.3,163l4.8,8.4h-3.2l-4.5-8.2h-2.5v8.3h-2.8v-22.4l6,0c3.9,0,6.3,1.6,6.3,6.1v1.6
		C94.5,160.3,93.4,162.4,90.3,163z M84.9,151.7v8.9h3.2c2.5,0,3.6-0.8,3.6-3.8v-1.6c0-3.1-1.1-3.3-3.6-3.5H84.9z"/>
	<path class="st5" d="M112.9,164.1c0,4.9-1.1,7.5-7.2,7.5s-7.2-2.6-7.2-7.5v-7.8c0-4.9,1.1-7.5,7.2-7.5s7.2,2.6,7.2,7.5V164.1z
		 M110.2,156.3c0-3.5-0.3-5-4.5-5s-4.5,1.4-4.5,5v7.8c0,3.5,0.3,4.9,4.5,4.9s4.5-1.4,4.5-4.9V156.3z"/>
</g>
<g>
	<g>
		<path class="st5" d="M18.6,211l-5.1-10.3l0.5,7.3v9.1H9.5v-25.6h4.4l5.2,11.4l5.3-11.4h4.4v25.6h-4.6V208l0.5-7.3L19.7,211H18.6z"
			/>
		<path class="st5" d="M45.6,191.5h4.6v18c0,5.3-3.2,7.8-8.6,7.8c-5.4,0-8.4-2.5-8.4-7.8v-18h4.6v17.8c0,2.4,1.1,4,3.8,4s4-1.6,4-4
			V191.5z"/>
		<path class="st5" d="M70.8,217.1h-4.5l-7.5-16.3l0.4,9.7v6.5h-4.6v-25.6h4.6l7.5,16.9l-0.5-10.8v-6.1h4.6V217.1z"/>
		<path class="st5" d="M83.9,191.4c6.2,0,8.8,2.2,8.8,7.7v10.5c0,5.3-2.7,7.5-8.8,7.5h-8.4v-25.6H83.9z M83.9,212.9
			c3.3,0,4.2-1.2,4.2-3.6v-10c0-2.4-0.5-3.7-4.1-3.7H80v17.3H83.9z"/>
		<path class="st5" d="M96.4,209.6v-10.9c0-5.4,2.4-7.7,8.6-7.7c6.2,0,8.8,2.2,8.8,7.7v10.9c0,5.3-2.7,7.7-8.8,7.7
			S96.4,214.9,96.4,209.6z M109.1,209.4V199c0-2.3-0.6-3.8-4.2-3.8c-3.3,0-4,1.5-4,3.8v10.4c0,2.4,0.6,3.8,4,3.8
			S109.1,211.8,109.1,209.4z"/>
	</g>
</g>
<g>
	<g>
		<path class="st5" d="M51,184.1v-3.5c0-2.5,1.3-3.6,3.4-3.6c1.1,0,1.9,0.3,2.5,1v-5h0.9v14.8H57l-0.1-1.2c-0.5,0.7-1.3,1.2-2.7,1.2
			C52,188,51,186.9,51,184.1z M54.4,187.1c1.9,0,2.5-1,2.5-2.8v-3.5c0-2-0.5-2.9-2.5-2.9c-2,0-2.5,1-2.5,2.8v3.4
			C52,186.5,52.7,187.1,54.4,187.1z"/>
		<path class="st5" d="M66.7,185c0,1.9-1,3-3.2,3c-2.3,0-3.4-1.1-3.4-4v-2.9c0-2.9,1.1-4,3.4-4c2.5,0,3.3,1.2,3.3,4v1.6h-5.8v1.2
			c0,2.2,0.5,3.2,2.5,3.2c2,0,2.3-0.9,2.3-2.1H66.7z M66.1,181.9v-0.7c0-2-0.4-3.3-2.5-3.3c-2,0-2.5,1-2.5,3.2v0.8H66.1z"/>
		<path class="st5" d="M71.7,187.9c-2.2,0.1-2.6-0.6-2.6-3v-11.1H70V185c0,1.9,0.2,2.1,1.7,2.1V187.9z"/>
	</g>
</g>
<path class="st5" d="M87.1,182.7H76.4c-0.3,0-0.5-0.2-0.5-0.5v-1.4c0-0.3,0.2-0.5,0.5-0.5h10.7c0.3,0,0.5,0.2,0.5,0.5v1.4
	C87.6,182.5,87.4,182.7,87.1,182.7z"/>
<g>
	<path class="st5" d="M45.7,182.7H34.9c-0.3,0-0.5-0.2-0.5-0.5v-1.4c0-0.3,0.2-0.5,0.5-0.5h10.7c0.3,0,0.5,0.2,0.5,0.5v1.4
		C46.1,182.5,45.9,182.7,45.7,182.7z"/>
</g>
<g>
	<g>
		<path class="st5" d="M116.4,232.5c-0.1,0.3-0.4,0.6-0.7,0.7l-2,0.8l-3.4,1.4l-2.8,9.7l-1.8,0.7l-0.6-8.3l-4.3,1.7l-1.4,4l-0.9,0.4
			l-0.1-0.4l-0.2,0.1l-0.4-4.1l-0.1-0.7l-0.4-0.6l-2.5-3.2l0.2-0.1l-0.2-0.3l0.9-0.4l3.8,1.9l4.3-1.7l-5.3-6.4l1.8-0.7l8.7,5
			l3.4-1.4l2-0.8c0.3-0.1,0.7-0.1,1,0c0.4,0.1,0.8,0.5,1,0.9c0,0,0,0,0,0c0,0,0,0,0,0C116.7,231.5,116.7,232,116.4,232.5z"/>
		<path class="st5" d="M36,244.3l0.2-0.8c1.3,0.3,2.6,0.5,3.9,0.7l-0.1,0.8C38.6,244.8,37.3,244.6,36,244.3z"/>
		<path class="st5" d="M28.2,242.4l0.2-0.8c1.3,0.4,2.6,0.7,3.9,1l-0.2,0.8C30.8,243.1,29.5,242.7,28.2,242.4z"/>
		<path class="st5" d="M20.6,239.8l0.3-0.8c1.2,0.5,2.5,0.9,3.7,1.4l-0.3,0.8C23.1,240.7,21.8,240.2,20.6,239.8z"/>
		<path class="st5" d="M6.1,232.7l0.4-0.7c1.1,0.7,2.3,1.3,3.5,2l-0.4,0.7C8.5,234.1,7.3,233.4,6.1,232.7z"/>
		<path class="st5" d="M13.2,236.5l0.4-0.7c1.2,0.6,2.4,1.1,3.6,1.7l-0.3,0.7C15.6,237.7,14.4,237.1,13.2,236.5z"/>
		<path class="st5" d="M68,245.3c1.3-0.1,2.7-0.3,4-0.4l0.1,0.8c-1.3,0.2-2.7,0.3-4,0.4L68,245.3z"/>
		<path class="st5" d="M83.8,242.9c1.3-0.3,2.6-0.6,3.9-0.9l0.2,0.8c-1.3,0.3-2.6,0.6-3.9,0.9L83.8,242.9z"/>
		<path class="st5" d="M75.9,244.3c1.3-0.2,2.6-0.4,3.9-0.7l0.1,0.8c-1.3,0.2-2.6,0.5-4,0.7L75.9,244.3z"/>
		<path class="st5" d="M95.6,240.3c-0.1,0-1.4,0.5-3.8,1.3l-0.2-0.8c2.4-0.7,3.8-1.3,3.8-1.3L95.6,240.3z"/>
		<path class="st5" d="M60,245.7c1.3,0,2.7-0.1,4-0.1l0,0.8c-1.3,0.1-2.7,0.1-4,0.1L60,245.7z"/>
		<path class="st5" d="M52,246.4l0-0.8c1.3,0.1,2.7,0.1,4,0.1l0,0.8C54.6,246.5,53.3,246.4,52,246.4z"/>
		<path class="st5" d="M43.9,245.6l0.1-0.8c1.3,0.2,2.6,0.3,4,0.4l-0.1,0.8C46.6,246,45.3,245.8,43.9,245.6z"/>
	</g>
</g>
</svg>
