<?xml version="1.0" encoding="utf-8"?>
<!-- Generator: Adobe Illustrator 19.2.1, SVG Export Plug-In . SVG Version: 6.00 Build 0)  -->
<svg version="1.1" id="Capa_1" xmlns="http://www.w3.org/2000/svg" xmlns:xlink="http://www.w3.org/1999/xlink" x="0px" y="0px"
	 viewBox="0 0 256.5 82" style="enable-background:new 0 0 256.5 82;" xml:space="preserve">
<style type="text/css">
	.st0{fill:#FFFFFF;}
	.st1{fill-rule:evenodd;clip-rule:evenodd;fill:#FFFFFF;}
</style>
<g>
	<polygon class="st0" points="10.3,37.7 -0.3,37.7 13.4,0.9 30.4,0.9 30.7,18.8 42.3,0.9 59.5,0.9 46.2,37.7 34,37.7 42,13.2 
		26.6,37.7 18.1,37.7 18,15.2 	"/>
	<path class="st0" d="M86.5,11.6l-9.1,26.1h-9.7l1.3-3.8c-1.8,1.5-3.6,2.7-5.3,3.4c-1.8,0.7-3.6,1.1-5.6,1.1c-1.6,0-3-0.3-4.1-0.8
		c-1.1-0.5-1.9-1.3-2.4-2.3c-0.5-0.9-0.6-2.1-0.5-3.4c0.1-1.3,0.8-3.6,1.8-6.7l4.7-13.5h10.6l-4.7,13.5c-0.7,2-0.9,3.4-0.6,4.1
		c0.3,0.8,1.1,1.1,2.4,1.1c1.3,0,2.5-0.4,3.4-1.3c1-0.9,1.8-2.2,2.4-4l4.7-13.4H86.5z"/>
	<polygon class="st0" points="83.4,37.7 95.7,2.3 106.4,2.3 94.1,37.7 	"/>
	<path class="st0" d="M115.8,28c-0.3,0.9-0.3,1.5,0.1,1.9c0.4,0.4,1.3,0.5,2.6,0.5c0.4,0,0.7,0,0.9,0c0.2,0,0.4,0,0.6,0l-2.6,7.5
		c-1.3,0.1-2.5,0.1-3.6,0.2c-1.1,0-2.1,0.1-3,0.1c-3.4,0-5.5-0.6-6.5-1.7c-1-1.1-0.9-3,0-5.8l4.6-13.1h-3.8l2.1-6h3.8l2.8-8.1h10.6
		l-2.8,8.1h5l-2.1,6h-5L115.8,28z"/>
	<path class="st0" d="M132,8.9l2.6-7.5h10.7l-2.6,7.5H132z M122,37.7l9.1-26.1h10.7l-9.1,26.1H122z"/>
	<path class="st1" d="M161.7,77.2L161.7,77.2l0.4,2.1h-1.5L161.7,77.2z M161.7,81.7h2l0-0.2c-0.6,0-0.6-0.1-0.7-0.6
		c-0.2-1-0.4-2.1-0.5-3.1l-0.3-1.6l-0.2,0.1l-2.5,4.4c-0.4,0.7-0.6,0.8-1.1,0.8l0,0.2h1.8l0-0.2l-0.4,0c-0.3,0-0.3-0.1-0.1-0.6
		c0.2-0.4,0.5-1,0.7-1.2h1.7l0.2,1.4c0.1,0.3,0,0.4-0.3,0.4l-0.4,0L161.7,81.7z M165.7,80.7c-0.2,0.2-0.6,0.5-0.7,0.5
		c-0.1,0-0.1-0.1,0-0.3l1-4.8c0-0.2,0-0.3-0.1-0.3c-0.1,0-0.6,0.2-1.3,0.3v0.2h0.4c0.3,0,0.3,0,0.2,0.4l-0.9,4.2
		c-0.1,0.6,0,0.8,0.1,0.8c0.1,0,1-0.5,1.3-0.9L165.7,80.7z M167.8,80.7c-0.2,0.2-0.6,0.5-0.7,0.5c-0.1,0-0.1-0.1,0-0.3l1-4.8
		c0-0.2,0-0.3-0.1-0.3c-0.1,0-0.6,0.2-1.3,0.3v0.2h0.4c0.3,0,0.3,0,0.2,0.4l-0.9,4.2c-0.1,0.6,0,0.8,0.1,0.8c0.1,0,1-0.5,1.3-0.9
		L167.8,80.7z M173.4,81.5c0.1-0.5,0.3-1.4,0.3-1.5c0.3-0.5,1.3-1.5,1.7-1.5c0.2,0,0.2,0.3,0.1,0.6l-0.5,2c-0.1,0.4-0.1,0.6,0.1,0.6
		c0.1,0,0.8-0.4,1.2-0.8l-0.1-0.2c-0.2,0.2-0.6,0.4-0.6,0.4c-0.1,0,0-0.1,0-0.3c0.2-0.7,0.3-1.3,0.5-2c0.2-0.8-0.1-0.9-0.2-0.9
		c-0.1,0-0.2,0-0.4,0.1c-0.4,0.2-1,0.6-1.7,1.4h0l0.2-0.8c0.1-0.5,0.1-0.7-0.1-0.7c-0.2,0-0.8,0.4-1.3,0.9l0.1,0.2
		c0.2-0.2,0.5-0.4,0.6-0.4c0.1,0,0,0.1,0,0.5l-0.3,1.4c-0.1,0.5-0.2,0.9-0.3,1.4L173.4,81.5z M179.4,80.7c-0.2,0.2-0.7,0.6-1.1,0.6
		c-0.4,0-0.6-0.4-0.6-0.9c0-0.6,0.2-1.2,0.4-1.6c0.2-0.3,0.4-0.5,0.7-0.5c0.2,0,0.4,0.1,0.6,0.3c0.1,0.1,0.2,0.1,0.3,0
		c0.1-0.1,0.2-0.2,0.2-0.3c0-0.2-0.3-0.4-0.6-0.4c-0.6,0-1.1,0.3-1.4,0.6c-0.6,0.5-0.9,1.4-0.9,2c0,0.7,0.3,1.1,0.9,1.1
		c0.4,0,1.1-0.3,1.7-0.9L179.4,80.7z M181.6,80.7c-0.2,0.2-0.6,0.5-0.7,0.5c-0.1,0-0.1-0.1,0-0.3l1-4.8c0-0.2,0-0.3-0.1-0.3
		c-0.1,0-0.6,0.2-1.3,0.3v0.2h0.4c0.3,0,0.3,0,0.2,0.4l-0.9,4.2c-0.1,0.6,0,0.8,0.2,0.8c0.1,0,1-0.5,1.3-0.9L181.6,80.7z
		 M185.3,78.2c-0.1,0.5-0.2,1.1-0.3,1.3c-0.2,0.4-1.3,1.8-1.7,1.8c-0.2,0-0.2-0.3-0.1-0.8l0.4-2c0.1-0.3,0.1-0.5-0.2-0.5
		c-0.2,0-0.8,0.4-1.2,0.9l0.1,0.2c0.2-0.2,0.5-0.4,0.6-0.4c0.1,0,0,0.1,0,0.5l-0.4,1.7c-0.2,0.9,0.1,1,0.2,1c0.2,0,0.5-0.1,0.7-0.3
		c0.5-0.3,1-0.9,1.4-1.4h0l-0.2,1.1c-0.1,0.4,0,0.6,0.1,0.6c0.1,0,0.8-0.4,1.3-0.8l-0.1-0.2c-0.2,0.2-0.6,0.4-0.6,0.4
		s-0.1-0.1,0-0.3L186,78h-0.1L185.3,78.2z M187.2,81.8c0.7,0,1.5-0.7,1.5-1.4c0-0.3-0.1-0.5-0.6-0.9c-0.3-0.2-0.6-0.4-0.6-0.7
		c0-0.3,0.2-0.5,0.5-0.5c0.3,0,0.5,0.1,0.6,0.3c0.1,0.1,0.1,0.1,0.3,0c0.1-0.1,0.1-0.2,0.1-0.3c0-0.2-0.3-0.4-0.6-0.4
		c-0.4,0-0.8,0.2-1,0.4c-0.4,0.4-0.4,0.7-0.4,0.9c0,0.4,0.4,0.6,0.8,0.9c0.4,0.3,0.5,0.5,0.5,0.7c0,0.3-0.3,0.5-0.5,0.5
		c-0.2,0-0.5-0.1-0.8-0.4c-0.1-0.1-0.1-0.1-0.3,0c-0.1,0.1-0.2,0.2-0.2,0.3C186.4,81.6,186.9,81.8,187.2,81.8 M190.8,76.9
		c0.3,0,0.5-0.2,0.4-0.5c0-0.2-0.1-0.3-0.4-0.3c-0.3,0-0.5,0.3-0.5,0.5C190.4,76.7,190.6,76.9,190.8,76.9 M191,80.7
		c-0.3,0.2-0.6,0.4-0.7,0.4c-0.1,0-0.1-0.1,0-0.3l0.6-2.3c0.1-0.3,0.2-0.6-0.1-0.6c-0.2,0-0.9,0.4-1.4,0.9l0.1,0.2
		c0.2-0.2,0.6-0.4,0.7-0.4c0.1,0,0.1,0.1,0,0.4l-0.6,2.3c-0.1,0.4,0,0.5,0.2,0.5c0.3,0,1.1-0.6,1.3-0.9L191,80.7z M192.7,81.8
		c0.5-0.6,1.3-1.6,1.8-2.3c0.5-0.6,0.6-0.8,0.6-1.1c0-0.3-0.2-0.4-0.4-0.4c-0.2,0-0.4,0.2-0.4,0.4c0,0.1,0.1,0.2,0.1,0.3
		c0,0.3-0.3,0.8-0.6,1.2c-0.2,0.3-0.5,0.7-0.8,1.1h0c0-0.8,0-1.6-0.1-2.1c0-0.6-0.1-0.9-0.3-0.9c-0.3,0-0.8,0.5-1.2,0.9l0.1,0.1
		c0.3-0.3,0.5-0.4,0.6-0.4c0.1,0,0.1,0.2,0.2,0.6c0,0.3,0.1,1.9,0.1,2.5H192.7z M196,79.9c0.2-0.9,0.6-1.3,0.8-1.5
		c0.1,0,0.2-0.1,0.3-0.1c0.2,0,0.4,0.1,0.4,0.4C197.5,79.2,197.2,79.5,196,79.9 M197.8,80.7c-0.5,0.5-1,0.6-1.3,0.6
		c-0.5,0-0.6-0.6-0.6-1c0,0,0-0.2,0-0.2c0.8-0.2,2.2-0.8,2.2-1.5c0-0.3-0.3-0.6-0.7-0.6c-0.4,0-0.9,0.2-1.3,0.5
		c-0.6,0.5-1,1.3-1,2.1c0,1,0.5,1.2,0.9,1.2c0.3,0,1-0.1,1.9-0.9L197.8,80.7z M202.1,78.7l0.2-1.2c0.2-0.9,0.3-1,0.9-1l0-0.2h-2.2
		l0,0.2c0.7,0,0.8,0.1,0.6,1l-0.6,3c-0.2,0.9-0.3,1-0.9,1l0,0.2h2.2l0-0.2c-0.7,0-0.8-0.1-0.6-1l0.3-1.5h2.9l-0.3,1.5
		c-0.2,0.9-0.3,1-0.9,1l0,0.2h2.2l0-0.2c-0.7,0-0.8-0.1-0.6-1l0.6-3c0.2-0.9,0.3-1,0.9-1l0-0.2h-2.2l0,0.2c0.7,0,0.8,0.1,0.6,1
		l-0.2,1.2H202.1z M207.4,80.4c0-1.2,0.6-1.9,0.9-2c0.1,0,0.2-0.1,0.3-0.1c0.4,0,0.7,0.3,0.7,1c0,1.1-0.6,2.1-0.9,2.2
		c-0.1,0-0.2,0.1-0.3,0.1C207.6,81.5,207.4,81,207.4,80.4 M208.8,78c-0.2,0-0.6,0.1-0.9,0.3c-0.6,0.3-1.2,1.1-1.2,2.3
		c0,0.6,0.3,1.2,1.1,1.2c0.4,0,0.9-0.2,1.3-0.6c0.6-0.5,0.9-1.4,0.9-2.1C209.9,78.5,209.5,78,208.8,78 M212.3,80.7
		c-0.2,0.2-0.6,0.6-0.8,0.6c-0.1,0-0.1-0.2,0-0.6l0.5-2.2l0.9,0l0.3-0.3H212l0.3-1.1l-0.1,0l-0.6,0.5l-0.2,0.6h-0.6l-0.2,0.2
		l0.1,0.1h0.7l-0.5,2.4c-0.1,0.6,0,0.9,0.2,0.9c0.4,0,1.2-0.7,1.4-1L212.3,80.7z M213.7,79.9c0.2-0.9,0.6-1.3,0.8-1.5
		c0.1,0,0.2-0.1,0.3-0.1c0.2,0,0.4,0.1,0.4,0.4C215.3,79.2,214.9,79.5,213.7,79.9 M215.6,80.7c-0.5,0.5-1,0.6-1.3,0.6
		c-0.6,0-0.6-0.6-0.6-1c0,0,0-0.2,0-0.2c0.8-0.2,2.2-0.8,2.2-1.5c0-0.3-0.3-0.6-0.7-0.6c-0.4,0-0.9,0.2-1.2,0.5
		c-0.6,0.5-1,1.3-1,2.1c0,1,0.5,1.2,0.9,1.2c0.3,0,1-0.1,1.8-0.9L215.6,80.7z M217.8,80.7c-0.2,0.2-0.6,0.5-0.7,0.5
		c-0.1,0-0.1-0.1,0-0.3l1-4.8c0-0.2,0-0.3-0.1-0.3c-0.1,0-0.6,0.2-1.3,0.3v0.2h0.4c0.3,0,0.3,0,0.2,0.4l-0.9,4.2
		c-0.1,0.6,0,0.8,0.2,0.8c0.1,0,1-0.5,1.3-0.9L217.8,80.7z M219,81.8c0.7,0,1.5-0.7,1.5-1.4c0-0.3-0.1-0.5-0.6-0.9
		c-0.3-0.2-0.6-0.4-0.6-0.7c0-0.3,0.2-0.5,0.5-0.5c0.3,0,0.5,0.1,0.6,0.3c0.1,0.1,0.1,0.1,0.3,0c0.1-0.1,0.1-0.2,0.1-0.3
		c0-0.2-0.3-0.4-0.6-0.4c-0.4,0-0.8,0.2-1,0.4c-0.4,0.4-0.4,0.7-0.4,0.9c0,0.4,0.4,0.6,0.8,0.9c0.4,0.3,0.5,0.5,0.5,0.7
		c0,0.3-0.3,0.5-0.5,0.5c-0.2,0-0.5-0.1-0.8-0.4c-0.1-0.1-0.1-0.1-0.3,0c-0.1,0.1-0.2,0.2-0.2,0.3C218.2,81.6,218.6,81.8,219,81.8
		 M223.5,80.2c0-0.3,0.1-0.5,0.3-0.8c0.2-0.2,0.4-0.4,0.7-0.5l1,1.8c-0.2,0.2-0.4,0.3-0.6,0.3c-0.2,0.1-0.4,0.1-0.6,0.1
		c-0.1,0-0.2,0-0.3-0.1c-0.1-0.1-0.2-0.1-0.2-0.2c-0.1-0.1-0.1-0.2-0.2-0.3C223.6,80.4,223.5,80.3,223.5,80.2 M224.4,77.5
		c0-0.1,0-0.1,0.1-0.2c0-0.1,0.1-0.2,0.1-0.2c0.1-0.1,0.1-0.1,0.2-0.2c0.1,0,0.2-0.1,0.3-0.1c0.1,0,0.2,0,0.2,0c0.1,0,0.1,0,0.2,0.1
		c0.1,0,0.1,0.1,0.1,0.2c0,0.1,0.1,0.2,0.1,0.3c0,0.2-0.1,0.5-0.3,0.7c-0.2,0.2-0.4,0.4-0.6,0.5l-0.3-0.5c-0.1-0.1-0.1-0.2-0.1-0.3
		C224.5,77.7,224.4,77.6,224.4,77.5 M227,78.5c-0.2,0-0.4,0-0.7,0l0,0c0.1,0,0.2,0.1,0.2,0.1c0,0.1,0.1,0.1,0.1,0.2
		c0,0.1,0,0.1,0,0.2c0,0.1,0,0.1-0.1,0.2c-0.2,0.4-0.4,0.7-0.6,1l-0.9-1.5c0.1,0,0.3-0.1,0.4-0.2c0.1-0.1,0.3-0.2,0.4-0.3
		c0.1-0.1,0.2-0.3,0.3-0.4c0.1-0.1,0.1-0.3,0.1-0.4c0-0.3-0.1-0.5-0.3-0.6c-0.2-0.2-0.4-0.2-0.7-0.2c-0.2,0-0.4,0-0.6,0.1
		c-0.2,0.1-0.3,0.2-0.4,0.3c-0.1,0.1-0.2,0.2-0.2,0.4c0,0.1-0.1,0.3-0.1,0.4c0,0.2,0,0.3,0,0.4c0,0.1,0.1,0.3,0.2,0.4l0.2,0.3
		c-0.5,0.2-0.9,0.5-1.2,0.7c-0.3,0.3-0.4,0.6-0.4,1c0,0.2,0,0.3,0.1,0.5c0.1,0.1,0.2,0.3,0.3,0.4c0.1,0.1,0.3,0.2,0.5,0.3
		c0.2,0.1,0.3,0.1,0.5,0.1c0.1,0,0.2,0,0.4-0.1c0.1,0,0.3-0.1,0.4-0.2c0.1-0.1,0.2-0.2,0.3-0.2c0.1-0.1,0.2-0.2,0.3-0.3
		c0.2,0.3,0.4,0.4,0.6,0.6c0.3,0.1,0.6,0.2,0.9,0.2c0.1,0,0.3,0,0.4-0.1c0.2-0.1,0.3-0.2,0.4-0.2l-0.1-0.1c-0.1,0.1-0.2,0.1-0.3,0.1
		c-0.1,0-0.3,0-0.4,0c-0.2,0-0.3-0.1-0.5-0.2c-0.1-0.1-0.3-0.3-0.5-0.6l-0.1-0.1c0.1-0.2,0.3-0.3,0.4-0.5c0.1-0.2,0.2-0.4,0.3-0.6
		c0.1-0.2,0.2-0.3,0.4-0.5c0.2-0.1,0.3-0.2,0.5-0.3l0,0c-0.1,0-0.2,0-0.2,0C227.2,78.5,227.1,78.5,227,78.5 M232.3,79.3
		c0.3,0,0.4,0,0.5,0.3c0.2,0.4,0.4,0.9,0.6,1.4c0.3,0.5,0.5,0.7,1.3,0.8l0.2,0l0-0.2c-0.3-0.1-0.4-0.2-0.6-0.4
		c-0.2-0.2-0.3-0.5-0.6-1c-0.2-0.3-0.4-0.9-0.5-1.1c0.7-0.2,1.4-0.7,1.4-1.6c0-0.5-0.2-0.8-0.5-1c-0.3-0.2-0.7-0.3-1.2-0.3h-2l0,0.2
		c0.7,0,0.8,0.1,0.6,1l-0.6,3c-0.2,0.9-0.3,1-0.9,1l0,0.2h2.2l0-0.2c-0.7,0-0.8-0.1-0.6-1l0.2-1.2H232.3z M232.4,76.8
		c0-0.1,0.1-0.2,0.1-0.2c0.1,0,0.2,0,0.4,0c0.7,0,1.1,0.3,1.1,1c0,0.6-0.3,1-0.7,1.3c-0.3,0.2-0.6,0.2-0.9,0.2h-0.4L232.4,76.8z
		 M236.1,79.9c0.1-0.9,0.6-1.3,0.8-1.5c0.1,0,0.2-0.1,0.3-0.1c0.2,0,0.4,0.1,0.4,0.4C237.6,79.2,237.3,79.5,236.1,79.9 M237.9,80.7
		c-0.5,0.5-1,0.6-1.3,0.6c-0.6,0-0.6-0.6-0.6-1c0,0,0-0.2,0-0.2c0.8-0.2,2.2-0.8,2.2-1.5c0-0.3-0.3-0.6-0.7-0.6
		c-0.4,0-0.9,0.2-1.2,0.5c-0.6,0.5-1,1.3-1,2.1c0,1,0.6,1.2,0.9,1.2c0.3,0,1-0.1,1.8-0.9L237.9,80.7z M239.2,81.8
		c0.7,0,1.5-0.7,1.5-1.4c0-0.3-0.1-0.5-0.6-0.9c-0.3-0.2-0.6-0.4-0.6-0.7c0-0.3,0.2-0.5,0.5-0.5c0.3,0,0.5,0.1,0.6,0.3
		c0.1,0.1,0.1,0.1,0.3,0c0.1-0.1,0.1-0.2,0.1-0.3c0-0.2-0.3-0.4-0.6-0.4c-0.4,0-0.8,0.2-1,0.4c-0.4,0.4-0.4,0.7-0.4,0.9
		c0,0.4,0.4,0.6,0.8,0.9c0.4,0.3,0.5,0.5,0.5,0.7c0,0.3-0.3,0.5-0.5,0.5c-0.2,0-0.5-0.1-0.8-0.4c-0.1-0.1-0.1-0.1-0.3,0
		c-0.1,0.1-0.2,0.2-0.2,0.3C238.4,81.6,238.9,81.8,239.2,81.8 M242.1,80.4c0-1.2,0.6-1.9,0.9-2c0.1,0,0.2-0.1,0.3-0.1
		c0.4,0,0.7,0.3,0.7,1c0,1.1-0.6,2.1-0.9,2.2c-0.1,0-0.2,0.1-0.3,0.1C242.3,81.5,242.1,81,242.1,80.4 M243.5,78
		c-0.2,0-0.6,0.1-0.9,0.3c-0.6,0.3-1.2,1.1-1.2,2.3c0,0.6,0.3,1.2,1.1,1.2c0.4,0,0.9-0.2,1.3-0.6c0.6-0.5,0.9-1.4,0.9-2.1
		C244.6,78.5,244.3,78,243.5,78 M246.5,78c-0.2,0-0.8,0.4-1.2,0.9l0.1,0.2c0.2-0.2,0.6-0.4,0.6-0.4c0.1,0,0.1,0.1,0,0.6l-0.3,1.3
		c-0.1,0.4-0.2,0.9-0.3,1.3l0.7-0.2c0-0.3,0.2-0.9,0.3-1.7c0.1-0.3,0.3-0.6,0.5-0.9c0.2-0.3,0.4-0.3,0.5-0.3c0.1,0,0.2,0,0.3,0.1
		c0.1,0.1,0.2,0,0.2,0c0.1-0.1,0.2-0.2,0.2-0.2c0.1-0.1,0.1-0.2,0-0.3c-0.1-0.1-0.2-0.2-0.4-0.2c-0.2,0-0.8,0.5-1.2,1.2h0l0.1-0.5
		C246.7,78.3,246.7,78,246.5,78 M250.1,80.7c-0.2,0.2-0.6,0.6-0.8,0.6c-0.1,0-0.1-0.2,0-0.6l0.5-2.2l0.9,0l0.2-0.3h-1.1l0.3-1.1
		l-0.1,0l-0.6,0.5l-0.2,0.6h-0.6l-0.2,0.2l0.1,0.1h0.7l-0.5,2.4c-0.1,0.6,0,0.9,0.2,0.9c0.4,0,1.2-0.7,1.4-1L250.1,80.7z
		 M251.4,81.8c0.7,0,1.5-0.7,1.5-1.4c0-0.3-0.1-0.5-0.6-0.9c-0.3-0.2-0.6-0.4-0.6-0.7c0-0.3,0.2-0.5,0.5-0.5c0.3,0,0.5,0.1,0.6,0.3
		c0,0.1,0.1,0.1,0.3,0c0.1-0.1,0.1-0.2,0.1-0.3c0-0.2-0.3-0.4-0.6-0.4c-0.4,0-0.8,0.2-1,0.4c-0.4,0.4-0.4,0.7-0.4,0.9
		c0,0.4,0.4,0.6,0.8,0.9c0.4,0.3,0.5,0.5,0.5,0.7c0,0.3-0.3,0.5-0.5,0.5c-0.2,0-0.5-0.1-0.8-0.4c-0.1-0.1-0.1-0.1-0.3,0
		c-0.1,0.1-0.2,0.2-0.2,0.3C250.6,81.6,251.1,81.8,251.4,81.8 M171.9,80.9c0,0.1,0,0.4,0,0.5c0,0.1,0,0.2,0.2,0.3l0.3,0l0,0.2h-1.6
		l0-0.2l0.3,0c0.2,0,0.2-0.2,0.3-0.7l0.5-4c0-0.1,0.1-0.4,0.1-0.5c0-0.1,0-0.2-0.2-0.3l-0.3,0l0-0.2h1.6l0,0.2l-0.3,0
		c-0.2,0-0.2,0.2-0.3,0.7L171.9,80.9z"/>
	<path class="st0" d="M63.9,48.7h6.3l0.4-7.8L63.9,48.7z M49.9,56.4l19.2-21.1h7.7l0.3,21.1h-7.4l0.2-3.6h-9.6l-3.1,3.6H49.9z"/>
	<path class="st0" d="M102.5,42.5c-0.8-0.7-1.6-1.2-2.5-1.5c-0.9-0.3-1.9-0.5-3.1-0.5c-1.8,0-3.4,0.5-4.9,1.5
		c-1.5,1-2.6,2.3-3.3,3.9c-0.7,1.6-0.8,2.9-0.1,3.9c0.6,1,1.8,1.5,3.6,1.5c1.1,0,2.3-0.2,3.5-0.5c1.2-0.3,2.5-0.9,3.9-1.5l-2.4,5.7
		c-1.5,0.6-3,1.1-4.4,1.4c-1.5,0.3-2.9,0.5-4.5,0.5c-1.6,0-3-0.3-4.2-0.8c-1.2-0.5-2.1-1.3-2.7-2.3c-0.7-1.1-1-2.2-1-3.5
		c0-1.3,0.4-2.7,1-4.3c0.7-1.6,1.6-3,2.7-4.3c1.1-1.3,2.5-2.5,4.1-3.5c1.6-1,3.2-1.8,4.9-2.3c1.6-0.5,3.4-0.8,5.2-0.8
		c1.3,0,2.5,0.1,3.6,0.4c1.1,0.3,2.1,0.7,3.1,1.3L102.5,42.5z"/>
	<path class="st0" d="M111,48.7h6.3l0.4-7.8L111,48.7z M97,56.4l19.2-21.1h7.7l0.3,21.1h-7.3l0.2-3.6h-9.6l-3.1,3.6H97z"/>
	<path class="st0" d="M149.7,42.5c-0.8-0.7-1.6-1.2-2.5-1.5c-0.9-0.3-1.9-0.5-3.1-0.5c-1.8,0-3.4,0.5-4.9,1.5
		c-1.5,1-2.6,2.3-3.3,3.9c-0.7,1.6-0.8,2.9-0.1,3.9c0.6,1,1.8,1.5,3.6,1.5c1.1,0,2.3-0.2,3.5-0.5c1.2-0.3,2.5-0.9,3.9-1.5l-2.3,5.7
		c-1.5,0.6-3,1.1-4.4,1.4c-1.5,0.3-2.9,0.5-4.4,0.5c-1.6,0-3-0.3-4.2-0.8c-1.2-0.5-2.1-1.3-2.7-2.3c-0.7-1.1-1-2.2-1-3.5
		c0-1.3,0.4-2.7,1-4.3c0.7-1.6,1.6-3,2.8-4.3c1.1-1.3,2.5-2.5,4.1-3.5c1.6-1,3.2-1.8,4.9-2.3c1.6-0.5,3.4-0.8,5.2-0.8
		c1.3,0,2.5,0.1,3.6,0.4c1.1,0.3,2.1,0.7,3.1,1.3L149.7,42.5z"/>
	<polygon class="st0" points="146.8,56.4 156.2,35.3 163.6,35.3 154.2,56.4 	"/>
	<path class="st0" d="M169.2,45.8c-0.6,1.4-0.7,2.5-0.3,3.4c0.4,0.9,1.3,1.3,2.5,1.3c1.3,0,2.5-0.4,3.7-1.3c1.2-0.9,2.1-2,2.7-3.4
		c0.6-1.4,0.7-2.5,0.3-3.4c-0.4-0.9-1.3-1.3-2.5-1.3c-1.3,0-2.5,0.4-3.7,1.3C170.7,43.4,169.8,44.5,169.2,45.8 M161.8,45.9
		c0.7-1.6,1.6-3,2.7-4.3c1.1-1.3,2.5-2.5,4.1-3.5c1.5-1,3.1-1.8,4.8-2.3c1.6-0.5,3.3-0.8,4.9-0.8c1.6,0,3.1,0.3,4.2,0.8
		c1.2,0.5,2.1,1.3,2.7,2.3c0.7,1,1,2.2,1,3.5c0,1.3-0.4,2.7-1.1,4.3c-0.7,1.6-1.6,3-2.7,4.3c-1.1,1.3-2.5,2.5-4.1,3.5
		c-1.6,1-3.2,1.8-4.8,2.3c-1.6,0.5-3.3,0.8-4.9,0.8c-1.6,0-3-0.3-4.2-0.8c-1.2-0.5-2.1-1.3-2.7-2.3c-0.7-1.1-1-2.2-1-3.5
		C160.8,48.9,161.2,47.4,161.8,45.9"/>
	<polygon class="st0" points="183.4,56.4 192.8,35.3 199.4,35.3 204.2,45.9 208.9,35.3 216.2,35.3 206.8,56.4 200.2,56.4 
		195.4,45.8 190.7,56.4 	"/>
	<polygon class="st0" points="210.6,56.4 220,35.3 235.4,35.3 233.4,39.9 225.2,39.9 223.6,43.6 231.5,43.6 229.5,48 221.6,48 
		219.9,51.8 228.4,51.8 226.4,56.4 	"/>
	<path class="st0" d="M229.2,55.2l2.6-5.8c0.8,0.7,1.5,1.3,2.3,1.6c0.8,0.4,1.5,0.6,2.3,0.6c0.7,0,1.4-0.1,1.8-0.4
		c0.5-0.2,0.8-0.6,1.1-1.1c0.2-0.5-0.2-1.2-1.3-1.9c-0.3-0.2-0.5-0.4-0.7-0.5c-1.3-1-2.1-2-2.4-3c-0.3-1-0.2-2.1,0.4-3.4
		c0.8-1.9,2.2-3.4,4.1-4.6c1.9-1.2,3.9-1.8,6.1-1.8c1.3,0,2.5,0.2,3.5,0.6c1,0.4,1.8,0.9,2.4,1.7l-2.5,5.6c-0.7-1-1.4-1.7-2.1-2.1
		c-0.7-0.4-1.4-0.6-2.3-0.6c-0.6,0-1.1,0.1-1.6,0.4c-0.4,0.2-0.8,0.6-0.9,1c-0.2,0.4-0.2,0.7,0,1c0.2,0.3,0.7,0.8,1.7,1.4
		c1.8,1.2,2.9,2.3,3.1,3.2c0.3,0.9,0.1,2-0.5,3.3c-0.9,2-2.3,3.6-4.3,4.7c-2,1.1-4.3,1.7-7.1,1.7c-1.1,0-2.2-0.1-3.1-0.4
		C231,56.1,230.1,55.7,229.2,55.2"/>
	<polygon class="st0" points="30.7,56.4 31.4,29.3 42.8,29.3 41.3,45.9 56.6,29.3 67.1,29.3 40.5,56.4 	"/>
	<path class="st1" d="M256.2,31.2C248,15.7,229.8,8.8,210.7,7.7c-18.5-1.1-38.9,7.5-47.8,23c1.6-1.9,3.4-3.7,5.6-5.2
		c3.1,2.1,8.3,3.7,13.8,4.7c-0.4,1.8-0.6,3.6-0.7,5.5c0.6-1.9,1.2-3.7,1.8-5.3c4.3,0.8,8.8,1.2,12.6,1.4c0,0.2,0.1,0.4,0.1,0.5
		l0.1-0.5c2.6,0.1,4.8,0.1,6.5,0c-1.7-0.1-3.9-0.2-6.4-0.5c0.3-1.8,0.7-3.5,1.1-5.1c1.8,0,3.5,0,4.9-0.1c-1.5-0.1-3.1-0.2-4.8-0.4
		c0.5-1.9,1.2-3.7,1.9-5.5c2.2,0.1,4.3,0.1,6.5-0.1c-2.2-0.1-4.3-0.4-6.2-0.7c1.4-3.1,3.2-5.9,5.4-8.4c3.7,1.3,7.3,2.1,11.3,2.2
		c1.6,2.2,2.9,5,3.9,7.5c-1.6,0.2-3.2,0.4-4.9,0.5c1.7,0.1,3.5,0.2,5.2,0.2c0.5,1.4,1,2.9,1.4,4.5c-1.9,0.2-3.7,0.4-5.4,0.4
		c1.6,0.1,3.5,0.2,5.5,0.1c0.4,1.6,0.7,3.3,0.9,4.9c-2.4,0.2-4.5,0.4-6.2,0.4c1.6,0.1,3.7,0.1,6.2,0c0.1,0.6,0.2,1.3,0.2,1.9
		c0.1-0.6,0.1-1.3,0.1-2c3.4-0.2,7.3-0.5,11.2-1.2c0.2,0.6,0.4,1.3,0.6,1.9c0-0.7,0-1.3-0.1-2c3.2-0.5,6.4-1.2,9.2-2.1
		c1.1,2.5,2.1,5.2,3.1,7.9c-0.1-3.2-0.8-5.8-1.6-8.4c2-0.7,3.8-1.6,5.2-2.6C252.7,27.2,254.3,29,256.2,31.2 M223.5,31.3
		c0.1-1.6,0-3.3-0.1-4.9c2.9-0.1,6.1-0.5,9.2-1.1c0.6,1.4,1.2,2.8,1.7,4.2C230.7,30.4,226.9,31,223.5,31.3 M235,29.3
		c-0.2-1.5-0.5-2.9-0.9-4.4c2.6-0.6,5-1.4,7.2-2.5c0.7,1.1,1.3,2.3,1.9,3.6C241.1,27.4,238.2,28.5,235,29.3 M244.8,24.8
		c-0.4-1.2-0.8-2.4-1.1-3.7c0.5-0.3,1.3-0.8,1.3-1.1c0.7,0.6,1.4,1.1,2,1.7C246.6,22.9,245.8,23.9,244.8,24.8 M223.3,25.7
		c-0.2-1.4-0.4-2.9-0.8-4.4c2.4-0.2,4.8-0.7,7.1-1.5c0.8,1.3,1.6,2.7,2.3,4.1C229.2,24.7,226.2,25.3,223.3,25.7 M233.7,23.3
		c-0.5-1.5-1.1-2.9-1.9-4.4c1.5-0.7,3-1.6,4.4-2.7c1.3,1.1,2.4,2.3,3.5,3.7C238.3,21.3,236.2,22.4,233.7,23.3 M222.3,20.4
		c-0.6-2.3-1.4-4.5-2.5-7c1.9,0.1,3.6,0,5.4,0.1c1.2,1.6,2.4,3.1,3.4,4.8C226.9,19.2,224.7,19.9,222.3,20.4 M230.7,17
		c-0.6-1-1.2-1.9-1.9-2.9c1.1-0.3,2.8-0.4,4.2-0.1c0.1,0.1,0.3,0.1,0.4,0.2C232.7,15.3,231.8,16.3,230.7,17 M172.6,22.1
		c0.7-0.5,1.4-1.1,2.1-1.6c2.5,1.8,5.8,3.1,9.3,4c-0.5,1.4-1,2.8-1.4,4.3C177.9,27.4,174,25.2,172.6,22.1 M183.9,29.2
		c0.6-1.5,1.3-2.9,1.9-4.2c3.4,0.7,6.9,1.1,10.1,1.2c-0.2,1.8-0.2,3.5,0,5.1C192.1,30.9,187.8,30.3,183.9,29.2 M177.7,18.5
		c2.3-1.4,4.6-2.7,7-3.8c1,0.8,2.1,1.5,3.1,2.1c-1.2,1.9-2.2,3.9-3.1,6c-3-1.2-5.5-2.6-6.6-4.5C178,18.4,177.9,18.5,177.7,18.5
		 M186.6,23.5c1.2-2.1,2.5-3.9,3.8-5.4c2.3,1,4.7,1.6,7,1.9c-0.7,1.9-1.1,3.7-1.4,5.5C192.8,25.1,189.5,24.4,186.6,23.5 M188.2,13.4
		c0.8-0.3,1.6-0.5,2.4-0.7c-0.5,0.6-0.9,1.3-1.4,2C188.9,14.3,188.5,13.9,188.2,13.4 M191.7,16.6c3.4-3.4,7-5.1,10.6-6.2
		c-2,3-3.5,5.8-4.6,8.6C195.5,18.4,193.4,17.7,191.7,16.6"/>
	<path class="st0" d="M214.8,52.8c-1.2,0-2.1,1.4-2.7,2.7c0.1-0.1,0.2-0.1,0.3-0.2c1.8-1.1,12.1,4.1,5.2,1.7c-1.2-0.4-2.2-0.6-3-0.7
		c2,0.9,4.3,11.7,1.9,5c-1.4-4.1-3.3-4.5-4.6-4.2c0.3,0.1-0.9,2.2-0.9,2.2S211,59,211,58.5c-0.2,0.4-0.5,0.8-0.6,1.1
		c-1.8,4.7-2.3,10.9-2.3,10.9s-1.4,0.8-1.6,0.8c-0.1-4.2,2.4-9.6,4.1-12.7c0-0.2,0-0.4,0-0.5l0-0.2c-0.9-0.9-2.9-1.7-6.2,2
		c-4.7,5.5,1.5-4.1,3.7-4c0.8,0,1.4,0.4,1.8,0.8c-0.7-0.7-2.1-1.3-4.5-1.6c-7.3-0.6,4.3-1.1,5.5,0.6l0.1,0.1c0.7-3,4.6-3.1,4.6-3
		C215.5,52.8,215.3,52.8,214.8,52.8"/>
	<path class="st0" d="M199.8,52.4c1.2,0,2.1,1.4,2.7,2.7c-0.1-0.1-0.2-0.1-0.3-0.2c-1.8-1.1-12.1,4.1-5.2,1.7c1.2-0.4,2.2-0.6,3-0.7
		c-2,0.9-4.3,11.7-1.9,5c1.5-4.1,3.3-4.5,4.6-4.2c-0.3,0.1-0.5,0.4-0.5,0.7c0,0.4,0.4,0.8,0.8,0.8c0.2,0,0.3-0.1,0.5-0.1
		c0.1,0.4,0.1,0.8,0.1,0.8s0.1-0.4,0.1-0.9c0.2,0.4,0.5,0.8,0.6,1.1c1.8,4.7,2.3,10.9,2.3,10.9s1.4,0.8,1.6,0.8
		c0.1-4.2-2.4-9.6-4.1-12.7c0-0.2,0-0.4,0-0.5l0-0.2c0.9-0.9,2.9-1.7,6.2,2c4.7,5.5-1.5-4.1-3.7-4c-0.8,0-1.4,0.4-1.8,0.8
		c0.7-0.7,2.1-1.3,4.5-1.6c7.3-0.6-4.3-1.1-5.5,0.6l-0.1,0.1c-0.7-3-4.6-3.1-4.6-3C199,52.4,199.3,52.4,199.8,52.4"/>
	<path class="st0" d="M252.8,62c0,0-0.1,0-0.1,0.1c-0.3,0.1-0.4,0.2-0.6,0.2c-0.2,0.1-0.2,0.2-0.2,0.3c0,1.7,0,3.3,0,5
		c0,1.7,0,3.3-0.2,5c0,0.1-0.1,0.1-0.1,0.1c-0.1,0-0.1,0-0.2,0c-0.7-0.5-1.3-1.1-1.9-1.7c-0.6-0.6-1.3-1.2-1.9-1.9
		c-0.6-0.6-1.2-1.3-1.8-1.9l-1.8-1.9c-0.2-0.2-0.3-0.4-0.4-0.5l-0.5-0.5c0,0.3-0.1,0.6-0.1,0.8c0,0.5,0,1,0,1.5l0.1,1.5l0.1,1.5
		c0,0.5,0,1,0,1.5c0,0.2,0,0.4,0.1,0.6c0,0.1,0.1,0.3,0.2,0.3c0.1,0.1,0.2,0.1,0.2,0.2c0.1,0,0.2,0.1,0.3,0.1c0.1,0,0.2,0,0.3,0.1
		c0.1,0,0.2,0.1,0.3,0.2c0.1,0,0.1,0.1,0.1,0.2c0,0-0.1,0.1-0.2,0.1l-1.9,0c-0.3,0-0.5,0-0.8,0c-0.3,0-0.5,0-0.8,0
		c-0.1,0-0.1-0.1-0.1-0.1c0-0.1,0.1-0.1,0.2-0.1l0.2,0c0.2-0.1,0.4-0.2,0.6-0.3c0.2-0.2,0.2-0.4,0.2-0.6V62c0-0.1,0-0.1,0.1-0.2
		c0-0.1,0.1-0.1,0.2-0.2c0.1-0.1,0.2-0.1,0.2,0c2.8,2.8,5.6,5.7,8.3,8.6v-0.2c0-0.1,0-0.2,0-0.2c0-1.1,0-2.2-0.1-3.3
		c0-1.1,0-2.2,0-3.3c0-0.2,0-0.4-0.1-0.5c0-0.1-0.1-0.2-0.2-0.3c-0.1-0.1-0.2-0.1-0.2-0.1l-0.3-0.1l-0.3-0.1c-0.1,0-0.2-0.1-0.2-0.1
		c-0.1,0-0.1-0.1-0.1-0.1c0,0,0.1-0.1,0.2-0.1h1.1h1.1c0.4,0,0.7,0,1.1,0L252.8,62z M240.1,67.4c0-0.6-0.1-1.3-0.3-1.9
		c-0.2-0.7-0.5-1.2-0.9-1.7c-0.4-0.5-0.8-0.9-1.4-1.2c-0.6-0.3-1.2-0.5-1.9-0.5c-0.7,0-1.3,0.1-1.8,0.4c-0.5,0.2-1,0.6-1.3,1
		c-0.4,0.4-0.6,0.9-0.8,1.5c-0.2,0.6-0.3,1.2-0.3,1.8c0,0.6,0.1,1.3,0.3,1.9c0.2,0.6,0.5,1.2,0.9,1.8c0.4,0.5,0.9,0.9,1.4,1.3
		c0.6,0.3,1.2,0.5,1.9,0.5c0.7,0,1.3-0.1,1.8-0.4c0.5-0.3,1-0.6,1.3-1c0.4-0.4,0.6-0.9,0.8-1.5C240,68.6,240.1,68,240.1,67.4
		 M241.6,67.4c0,0.8-0.1,1.5-0.4,2.1c-0.3,0.6-0.7,1.1-1.1,1.6c-0.5,0.4-1,0.8-1.7,1.1c-0.6,0.3-1.3,0.5-2,0.7l-0.2,0
		c-0.1,0-0.2,0-0.3,0c-0.1,0-0.2,0-0.3,0h-0.2c-0.4,0-0.9-0.1-1.3-0.2c-0.4-0.2-0.9-0.4-1.3-0.6c-0.4-0.3-0.8-0.6-1.2-0.9
		c-0.4-0.3-0.7-0.7-1-1.1c-0.3-0.4-0.5-0.8-0.7-1.3c-0.2-0.4-0.2-0.9-0.2-1.3c0-0.9,0.1-1.7,0.3-2.3c0.2-0.7,0.5-1.3,0.9-1.8
		c0.4-0.5,1-0.9,1.7-1.2c0.7-0.3,1.5-0.6,2.5-0.8c0.1,0,0.3-0.1,0.4-0.1c0.2,0,0.3,0,0.5,0c1,0,1.8,0.2,2.5,0.6
		c0.7,0.4,1.3,0.9,1.8,1.5c0.5,0.6,0.8,1.3,1,2C241.5,66,241.6,66.7,241.6,67.4 M227.6,65.1c0-0.3,0-0.7-0.2-1
		c-0.1-0.4-0.2-0.7-0.4-0.9c-0.2-0.3-0.4-0.5-0.7-0.7c-0.3-0.2-0.6-0.3-1-0.3c-0.3,0-0.6,0-0.9,0.1v4.9c0.4,0.1,0.8,0.1,1.3,0.1
		c0.2,0,0.4,0,0.6,0c0.2,0,0.4-0.1,0.6-0.2c0.1-0.1,0.3-0.2,0.3-0.4c0.1-0.2,0.2-0.3,0.2-0.5c0.1-0.2,0.1-0.4,0.1-0.6
		C227.5,65.5,227.6,65.3,227.6,65.1 M232.9,72.6c-0.2,0.1-0.5,0.2-0.7,0.3c-0.3,0.1-0.5,0.1-0.8,0.1c-0.4,0-0.8-0.1-1.2-0.2
		c-0.3-0.1-0.7-0.4-1-0.6c-0.3-0.3-0.6-0.5-0.8-0.9c-0.2-0.3-0.5-0.6-0.7-1c-0.2-0.3-0.5-0.6-0.7-0.9c-0.2-0.3-0.5-0.6-0.7-0.8
		c-0.2-0.2-0.4-0.3-0.7-0.3c-0.3,0-0.5-0.1-0.7-0.1h-0.3c-0.1,0-0.2,0-0.3,0V71l0,0.3l0.1,0.4l0.1,0.4c0,0.1,0.1,0.2,0.1,0.2
		c0.1,0,0.1,0,0.2,0l0.2,0c0.1,0,0.2,0,0.3,0c0.1,0,0.2,0.1,0.3,0.2c0.1,0,0.1,0.1,0,0.1c0,0-0.1,0.1-0.2,0.1h-1.9
		c-0.6,0-1.2,0-1.9,0c-0.1,0-0.2,0-0.2-0.1c0-0.1,0-0.1,0.2-0.2c0.2,0,0.4-0.1,0.5-0.1c0.1-0.1,0.2-0.1,0.3-0.2
		c0.1-0.1,0.1-0.2,0.1-0.4c0-0.2,0-0.4,0-0.6v-8.3c0-0.2,0-0.3-0.1-0.4c0-0.1-0.1-0.2-0.2-0.2c-0.1-0.1-0.1-0.1-0.2-0.1
		c-0.1,0-0.1,0-0.2,0c-0.1,0-0.3,0-0.4-0.1c-0.1,0-0.2-0.1-0.2-0.2c0-0.1,0-0.1,0-0.1c0,0,0.1-0.1,0.2-0.1h0.3h1c0.2,0,0.3,0,0.5,0
		c0.2,0,0.3,0,0.5,0h0.3c0.1,0,0.2,0,0.3,0h0.8c0.4,0,0.8,0,1.3,0.1c0.4,0.1,0.8,0.2,1.1,0.3c0.4,0.2,0.7,0.4,0.9,0.7
		c0.3,0.3,0.4,0.7,0.6,1.2c0,0.1,0,0.1,0,0.2c0,0.1,0,0.2,0,0.2c0,0.3,0,0.6-0.1,0.9c-0.1,0.3-0.2,0.6-0.4,0.9
		c-0.2,0.3-0.4,0.6-0.6,0.8c-0.2,0.2-0.4,0.5-0.6,0.7c0.2,0.2,0.3,0.4,0.5,0.6l0.6,0.7l1,1.2c0.3,0.4,0.7,0.8,1,1.1
		c0.4,0.3,0.7,0.6,1.1,0.8c0.4,0.2,0.8,0.3,1.2,0.2L232.9,72.6z M221.5,70.7c-0.1,0.2-0.1,0.5-0.2,0.7l-0.1,0.7l0,0.4
		c0,0.1-0.1,0.1-0.2,0.1l-0.3,0.1h-2c-0.2,0-0.5,0-0.7,0h-0.7c-0.4,0-0.9,0-1.3,0c-0.3,0-0.6,0-0.9,0c-0.5,0-1.1,0.1-1.6,0.1
		c-0.5,0-1,0-1.6,0c-0.1,0-0.1,0-0.2,0c0,0,0-0.1,0-0.1c0-0.1,0.1-0.3,0.1-0.4c0-0.1,0-0.3,0-0.4c0-0.7,0-1.5-0.1-2.3
		c-0.1-0.8-0.2-1.6-0.2-2.3l-0.1-0.6l-0.1-0.5l-0.1-0.5l-0.1-0.6c-0.5,0.9-0.9,1.7-1.3,2.6l-1.3,2.6l-0.6,1.2l-0.6,1.2
		c0,0.1-0.1,0.1-0.1,0.1c-0.1,0-0.1,0-0.2-0.1c-0.6-0.8-1.2-1.7-1.6-2.6c-0.5-0.9-0.9-1.8-1.3-2.7l-0.3-0.6
		c-0.1-0.2-0.1-0.4-0.2-0.5l-0.2-0.5c-0.1-0.2-0.2-0.4-0.3-0.6c0,0.3-0.1,0.6-0.1,0.8c0,0.3-0.1,0.6-0.1,0.8
		c-0.1,0.7-0.2,1.4-0.3,2.1c-0.1,0.7-0.1,1.4-0.1,2.1v0.4v0.4c0,0.1,0,0.2,0,0.2c0,0,0.1,0.1,0.1,0.1c0.1,0,0.1,0.1,0.2,0.1l0.2,0.1
		c0.1,0,0.2,0.1,0.4,0.2c0.1,0,0.1,0.1,0.1,0.2c0,0.1-0.1,0.1-0.2,0.1c-0.5,0-1,0-1.6,0c-0.4,0-0.8,0-1.2,0c-0.2,0-0.3,0-0.5,0h-0.9
		c-0.2,0-0.5,0-0.8,0c-0.3,0-0.6,0-0.8,0c-0.1,0-0.1,0-0.2-0.1c0,0,0-0.1,0-0.1l0.5-0.3c-0.2-0.6-0.5-1.3-0.7-1.9
		c-0.3-0.6-0.5-1.3-0.7-1.9h-3c-0.1,0.2-0.2,0.4-0.3,0.8c-0.1,0.3-0.2,0.7-0.4,1.1c-0.1,0.4-0.2,0.7-0.3,1c-0.1,0.3-0.1,0.5-0.1,0.7
		c0,0.2,0.1,0.3,0.2,0.3c0.2,0,0.3,0.1,0.5,0.1c0.1,0,0.1,0.1,0.1,0.2c0,0.1-0.1,0.1-0.2,0.1l-3.2,0c-0.1-0.1-0.1-0.2,0-0.2l0.2,0
		c0.1,0,0.3,0,0.4-0.1c0.1-0.1,0.3-0.2,0.4-0.3c0.1-0.1,0.2-0.2,0.3-0.4c0.1-0.1,0.2-0.3,0.2-0.4c0.3-0.7,0.5-1.3,0.7-2
		c0.2-0.7,0.5-1.4,0.7-2c0.4-1,0.7-1.9,1.1-2.9l1.1-2.9c0,0,0.1-0.1,0.1-0.1c0.1,0,0.1,0,0.1,0c0.2,0.2,0.3,0.5,0.5,0.8
		c0.1,0.4,0.3,0.7,0.4,1c0,0.1,0.1,0.1,0.1,0.2c0,0.1,0,0.1,0.1,0.1c0.1,0.3,0.3,0.6,0.4,1c0.1,0.3,0.3,0.7,0.4,1l0.6,1.5l0.6,1.6
		c0.2,0.5,0.4,1,0.7,1.6c0.2,0.5,0.4,1,0.7,1.4c0.1,0.3,0.3,0.5,0.6,0.6c0.2,0.1,0.3,0.1,0.5,0.2l0.2,0c0.1,0,0.2-0.1,0.2-0.2
		c0-0.1,0.1-0.3,0.1-0.6c0.1-0.3,0.1-0.7,0.2-1.2l0.2-1.6c0.1-0.6,0.1-1.2,0.2-1.8c0.1-0.6,0.1-1.2,0.2-1.8c0.1-0.6,0.1-1.2,0.2-1.7
		c0.1-0.4,0.1-0.8,0.1-1.2l0.1-0.7c0-0.1,0-0.1,0.1-0.1c0.1,0,0.1,0,0.2,0c0.1,0.1,0.2,0.3,0.4,0.5c0.2,0.3,0.3,0.6,0.5,0.9
		c0.2,0.4,0.4,0.8,0.7,1.2l0.7,1.4L206,67l0.7,1.4c0.3,0.5,0.5,0.9,0.6,1.2c0.1,0.3,0.3,0.5,0.4,0.7c0.3-0.5,0.5-1,0.8-1.6
		c0.2-0.5,0.5-1,0.7-1.6c0.2-0.5,0.4-0.9,0.6-1.3c0.2-0.4,0.4-0.9,0.6-1.3l0.3-0.7l0.6-1.3c0.2-0.4,0.5-0.8,0.7-1.3
		c0.1,0,0.1-0.1,0.2-0.1c0.1,0,0.1,0,0.1,0.1c0.1,0.7,0.2,1.3,0.2,2c0.1,0.7,0.2,1.3,0.2,2l0,0.4l0.1,0.6l0.1,1c0,0.3,0.1,0.7,0.1,1
		l0.1,1c0,0.3,0.1,0.7,0.1,1c0.1,0.3,0.1,0.5,0.2,0.8c0.1,0.2,0.1,0.4,0.2,0.5c0.1,0.2,0.3,0.3,0.4,0.4c0.2,0.1,0.3,0.1,0.5,0.1
		c0.1,0,0.2,0,0.3,0.1c0.3,0,0.4,0,0.5-0.1c0.1-0.1,0.2-0.2,0.3-0.3c0.1-0.1,0.1-0.3,0.1-0.4c0-0.2,0-0.3,0-0.5v-8.3
		c0-0.1,0-0.2,0-0.3c0-0.1-0.1-0.1-0.1-0.2c-0.1-0.1-0.1-0.1-0.2-0.1l-0.2-0.1c-0.1,0-0.2,0-0.3-0.1c-0.1,0-0.2-0.1-0.3-0.2
		c-0.1,0-0.1-0.1-0.1-0.2c0-0.1,0.1-0.1,0.2-0.1h5.9c0.1,0,0.1,0,0.3-0.1c0.1,0,0.1,0,0.2,0c0.1,0,0.1,0.1,0.1,0.1
		c0,0.3-0.1,0.6-0.1,0.8c-0.1,0.3-0.1,0.5-0.2,0.8l0,0.1l0,0.1c0,0.1-0.1,0.1-0.2,0.1c-0.1,0-0.2,0-0.2-0.1c0-0.5-0.2-0.8-0.5-0.9
		c-0.3-0.2-0.6-0.2-1-0.2h-0.3c-0.1,0-0.2,0-0.3,0c-0.1,0-0.2,0-0.3,0h-0.3c-0.1,0-0.1,0-0.2,0c0,0-0.1,0-0.2,0v4h2.3
		c0.1,0,0.1,0,0.2,0c0.1,0,0.2-0.1,0.3-0.1c0.1,0,0.2-0.1,0.3-0.1c0.1,0,0.2-0.1,0.2-0.1c0.1,0,0.1,0,0.2,0c0,0,0.1,0.1,0.1,0.1
		l-0.1,0.5l-0.1,0.4c-0.1,0.4-0.1,0.7-0.1,1.1c0,0.1,0,0.1-0.1,0.1c-0.1,0-0.1,0-0.2,0c-0.1-0.1-0.1-0.1-0.2-0.2l-0.1-0.2l-0.1-0.3
		c0-0.1-0.1-0.2-0.1-0.2c-0.1-0.1-0.2-0.1-0.4-0.1c-0.2,0-0.4-0.1-0.6-0.1c-0.2,0-0.5,0-0.7,0h-0.5h-0.3v4c0.2,0.3,0.5,0.5,0.8,0.7
		c0.4,0.1,0.7,0.2,1.1,0.2c0.4,0,0.8-0.1,1.1-0.3c0.3-0.2,0.5-0.6,0.7-1c0.1-0.1,0.2-0.1,0.2-0.1C221.4,70.6,221.4,70.6,221.5,70.7
		L221.5,70.7z M196.4,67.6l-1.3-3.6l-0.6,1.8c-0.2,0.6-0.4,1.2-0.6,1.8H196.4z M190.6,70.4c0,0.3,0,0.6-0.1,1
		c-0.1,0.3-0.2,0.7-0.4,0.9c0,0.1-0.1,0.1-0.1,0.1c-0.6,0.1-1.3,0.2-1.9,0.2c-0.6,0.1-1.3,0.1-2,0.1c-0.8,0-1.6-0.1-2.3-0.4
		c-0.7-0.3-1.3-0.6-1.8-1.1c-0.5-0.5-0.9-1.1-1.2-1.7c-0.3-0.7-0.4-1.4-0.4-2.2c0-0.9,0.2-1.7,0.5-2.5c0.3-0.8,0.8-1.5,1.5-2.2
		c0.2-0.2,0.5-0.4,0.9-0.6c0.4-0.2,0.7-0.3,1.1-0.4c0.4-0.1,0.8-0.2,1.2-0.2c0.4,0,0.8-0.1,1.1-0.1c0.4,0,0.7,0,1.1,0.1
		c0.4,0,0.7,0.1,1.1,0.1l0.8,0.1c0.3,0,0.5,0.1,0.8,0.1c0.1,0,0.2,0,0.2,0.1c0,0.5,0,0.9-0.1,1.4c-0.1,0.4-0.1,0.9-0.2,1.3
		c0,0.1-0.1,0.1-0.2,0.1c-0.1,0-0.2,0-0.2-0.1c-0.1-0.4-0.2-0.8-0.4-1.1c-0.2-0.3-0.5-0.6-0.8-0.8c-0.3-0.2-0.6-0.4-1-0.5
		c-0.4-0.1-0.8-0.2-1.2-0.2c-0.7,0-1.3,0.1-1.9,0.3c-0.6,0.2-1.1,0.5-1.5,0.9c-0.4,0.4-0.7,0.9-0.9,1.4c-0.2,0.6-0.3,1.2-0.3,1.9
		c0,0.7,0.1,1.4,0.4,2.1c0.3,0.7,0.6,1.3,1.1,1.8c0.5,0.5,1,0.9,1.7,1.2c0.6,0.3,1.4,0.5,2.1,0.5c0.4,0,0.8,0,1.1-0.1
		c0.3-0.1,0.6-0.2,0.8-0.4c0.2-0.2,0.4-0.4,0.6-0.7c0.2-0.3,0.4-0.6,0.6-1l0.3,0C190.6,70.1,190.6,70.3,190.6,70.4 M180.1,70.7
		c-0.1,0.2-0.1,0.5-0.2,0.7l-0.1,0.7l0,0.4c0,0.1-0.1,0.1-0.1,0.1l-0.3,0.1h-1.9c-0.2,0-0.5,0-0.7,0h-0.7c-0.4,0-0.9,0-1.3,0
		c-0.4,0-0.8,0-1.2-0.1c-0.1,0-0.2,0-0.2-0.1c0-0.1,0.1-0.1,0.2-0.1c0.2,0,0.3-0.1,0.5-0.1c0.1-0.1,0.2-0.2,0.3-0.3
		c0.1-0.1,0.1-0.3,0.1-0.4c0-0.2,0-0.3,0-0.5v-8.3c0-0.1,0-0.2,0-0.3c0-0.1-0.1-0.1-0.1-0.2c-0.1-0.1-0.1-0.1-0.2-0.1l-0.2-0.1
		c-0.1,0-0.2,0-0.3-0.1c-0.1,0-0.2-0.1-0.3-0.2c-0.1,0-0.1-0.1-0.1-0.2c0-0.1,0.1-0.1,0.2-0.1h5.9c0.1,0,0.2,0,0.3-0.1
		c0.1,0,0.1,0,0.2,0c0.1,0,0.1,0.1,0.1,0.1c0,0.3-0.1,0.6-0.1,0.8c-0.1,0.3-0.1,0.5-0.2,0.8l0,0.1l0,0.1c0,0.1-0.1,0.1-0.2,0.1
		c-0.1,0-0.2,0-0.2-0.1c-0.1-0.5-0.2-0.8-0.5-0.9c-0.3-0.2-0.6-0.2-1-0.2h-0.3c-0.1,0-0.2,0-0.3,0c-0.1,0-0.2,0-0.3,0h-0.3
		c-0.1,0-0.1,0-0.2,0c0,0-0.1,0-0.2,0v4h2.3c0,0,0.1,0,0.2,0c0.1,0,0.2-0.1,0.3-0.1c0.1,0,0.2-0.1,0.3-0.1c0.1,0,0.2-0.1,0.2-0.1
		c0.1,0,0.1,0,0.2,0c0.1,0,0.1,0.1,0.1,0.1l-0.1,0.5l-0.1,0.4c-0.1,0.4-0.1,0.7-0.1,1.1c0,0.1,0,0.1-0.1,0.1c-0.1,0-0.1,0-0.2,0
		c-0.1-0.1-0.1-0.1-0.2-0.2l-0.1-0.2l-0.1-0.3c0-0.1-0.1-0.2-0.1-0.2c-0.1-0.1-0.2-0.1-0.4-0.1c-0.2,0-0.4-0.1-0.6-0.1
		c-0.2,0-0.5,0-0.7,0h-0.6h-0.3v4c0.2,0.3,0.5,0.5,0.8,0.7c0.4,0.1,0.7,0.2,1.1,0.2c0.4,0,0.8-0.1,1.1-0.3c0.3-0.2,0.5-0.6,0.7-1
		c0.1-0.1,0.2-0.1,0.2-0.1C180,70.6,180.1,70.6,180.1,70.7L180.1,70.7z M172.9,66.6c0,1.4-0.2,2.6-0.6,3.6c-0.4,1-0.9,1.8-1.6,2.5
		c-0.7,0.7-1.6,1.2-2.6,1.5c-1,0.3-2.1,0.5-3.3,0.5c-0.4,0-0.9,0-1.3,0c-0.4,0-0.9-0.1-1.3-0.1c-0.5,0-1-0.1-1.5-0.1
		c-0.5,0-1-0.1-1.5,0c-0.1,0-0.2-0.1-0.2-0.2c0-0.1,0-0.2,0.2-0.2c0.3-0.1,0.5-0.1,0.6-0.2c0.2-0.1,0.3-0.2,0.3-0.4
		c0.1-0.2,0.1-0.3,0.2-0.5c0-0.2,0-0.5,0-0.8V60.6c0-0.2,0-0.4-0.1-0.5c-0.1-0.1-0.1-0.2-0.2-0.3c-0.1-0.1-0.2-0.1-0.3-0.1
		c-0.1,0-0.2,0-0.3-0.1c-0.2,0-0.3-0.1-0.4-0.1c-0.1,0-0.2-0.1-0.2-0.2c0-0.1,0-0.1,0-0.2c0.1-0.1,0.1-0.1,0.2-0.1
		c0.2,0,0.5,0,0.7,0l0.7,0c0.3,0,0.5,0.1,0.8,0.1c0.3,0,0.5,0,0.8,0c0.3,0,0.7,0,1,0l1-0.1c0.3,0,0.7,0,1,0c0.4,0,0.7,0,1,0
		c0.4,0,0.9,0.1,1.4,0.2c0.5,0.2,1,0.4,1.5,0.6c0.5,0.3,1,0.6,1.5,1c0.5,0.4,0.9,0.8,1.2,1.2c0.4,0.4,0.7,0.9,0.9,1.4
		c0.2,0.5,0.4,1,0.4,1.5c0,0.3,0,0.5,0,0.8V66.6z M170.9,67.3c0-1.1-0.2-2.1-0.5-3c-0.3-0.9-0.8-1.7-1.4-2.3
		c-0.6-0.6-1.3-1.1-2.2-1.5c-0.8-0.3-1.7-0.5-2.7-0.5c-0.3,0-0.7,0-1,0.1c-0.3,0-0.6,0.1-0.9,0.2v11v0.4c0,0.2,0,0.4,0.1,0.5
		c0,0.2,0.1,0.3,0.1,0.5c0.1,0.2,0.1,0.3,0.2,0.3c0.3,0.2,0.6,0.4,1.1,0.5c0.4,0.1,0.8,0.1,1.2,0.1c0.9,0,1.7-0.1,2.5-0.4
		c0.8-0.3,1.4-0.7,1.9-1.2c0.5-0.5,1-1.2,1.3-2C170.8,69.3,170.9,68.4,170.9,67.3"/>
</g>
</svg>
